<?xml version="1.0" encoding="UTF-8" standalone="no"?>
<svg
   xmlns:dc="http://purl.org/dc/elements/1.1/"
   xmlns:cc="http://creativecommons.org/ns#"
   xmlns:rdf="http://www.w3.org/1999/02/22-rdf-syntax-ns#"
   xmlns:svg="http://www.w3.org/2000/svg"
   xmlns="http://www.w3.org/2000/svg"
   xmlns:sodipodi="http://sodipodi.sourceforge.net/DTD/sodipodi-0.dtd"
   xmlns:inkscape="http://www.inkscape.org/namespaces/inkscape"
   width="58"
   height="10"
   version="1.1"
   id="svg268"
   sodipodi:docname="masjid-top-page-logo.svg"
   inkscape:version="0.92.3 (2405546, 2018-03-11)">
  <defs
     id="defs272" />
  <sodipodi:namedview
     pagecolor="#ffffff"
     bordercolor="#666666"
     borderopacity="1"
     objecttolerance="10"
     gridtolerance="10"
     guidetolerance="10"
     inkscape:pageopacity="0"
     inkscape:pageshadow="2"
     inkscape:window-width="1920"
     inkscape:window-height="1001"
     id="namedview270"
     showgrid="false"
     inkscape:zoom="15.172414"
     inkscape:cx="28.631767"
     inkscape:cy="11.666786"
     inkscape:window-x="-9"
     inkscape:window-y="-9"
     inkscape:window-maximized="1"
     inkscape:current-layer="layer1" />
  <metadata
     id="metadata450775">image/svg+xml<rdf:RDF>
  <cc:Work
     rdf:about="">
    <dc:format>image/svg+xml</dc:format>
    <dc:type
       rdf:resource="http://purl.org/dc/dcmitype/StillImage" />
    <dc:title></dc:title>
  </cc:Work>
</rdf:RDF>
</metadata>
  <g
     id="g146">
    <title
       id="title143">background</title>
    <rect
       x="-1"
       y="-1"
       width="60"
       height="12"
       id="canvas_background"
       fill="none" />
  </g>
  <g
     id="g266">
    <title
       id="title148">Layer 1</title>
    <g
       stroke="null"
       id="layer1">
      <g
         stroke="null"
         id="layer13"
         display="none">
        <path
           stroke="null"
           id="path444391"
           d="m138.049516,-64.091188c0.620662,0 1.155749,-0.500041 1.604504,-1.499327c0.420476,-1.069775 0.83611,-2.139171 1.246534,-3.208959c0.238516,-0.549488 0.676111,-1.116899 1.310917,-1.701448c0.635175,-0.584929 1.143841,-0.862211 1.525986,-0.832227c0.286888,0.019867 0.563735,0.309995 0.831279,0.870004c0.391079,0.799123 0.730063,1.364197 1.016951,1.693655c0.945511,1.079905 2.182004,1.589683 3.710595,1.529715c0.735274,0 1.365238,-0.265208 1.890643,-0.79445c0.258241,-0.260144 0.597225,-0.839628 1.016951,-1.739616c-0.028268,0.470045 0.056958,0.864548 0.258241,1.184671c0.248189,0.38008 0.640017,0.70955 1.175094,0.989157c0.457688,0.239897 0.830161,0.360237 1.11705,0.360237c0.200935,0 0.711088,-0.174864 1.533064,-0.52496c0.954804,-0.399556 1.690457,-0.814317 2.20619,-1.24464c-0.057274,0.909725 0.123535,1.624732 0.544011,2.144236c0.382514,0.469653 0.902719,0.705269 1.561711,0.705269c0.802621,0 1.561332,-0.340358 2.277999,-1.019936c0.467361,-0.559618 0.783276,-0.979823 0.945511,-1.25943c0.200935,0.629715 0.320008,0.974758 0.358328,1.034335c0.238147,0.38983 0.653782,0.584549 1.246175,0.584549c0.935829,0 1.77157,-0.869233 2.506843,-2.608445c0.029428,0.500029 0.153312,0.909725 0.372473,1.229055c0.410803,0.610251 1.170263,0.929984 2.278748,0.959968c0.992765,0 1.852323,-0.52496 2.578294,-1.57411c0.601686,-0.8696 0.883364,-2.264185 0.845413,-4.183314c-0.602055,-5.998115 -1.043743,-9.21368 -1.530828,-12.932038c0.487085,0.559629 0.739746,0.849366 0.758721,0.869624c0.076682,0.060383 0.139167,0.090296 0.18679,0.090296c0.057696,0 0.085964,-0.050219 0.085964,-0.150312c0,-0.579484 -0.491916,-1.843979 -1.476127,-3.793508c-0.171907,-0.459927 -0.305495,-0.690075 -0.400382,-0.690075c-0.038288,0 -0.0674,0.035428 -0.086703,0.105087c-0.305495,0.999678 -0.458427,1.634469 -0.458427,1.903959c0,0.140586 0.029006,0.250394 0.086281,0.330229c0.152932,0.220042 0.238516,0.360237 0.257861,0.419826c0.085964,1.679256 0.209869,3.189092 0.372104,4.528369c0.964867,7.776658 1.345145,10.482848 1.345145,11.40192c0,0.130066 -0.009493,0.210304 -0.029006,0.240289c-0.209869,0.470045 -0.46773,0.79445 -0.773604,0.974747c-0.381776,0.239897 -0.968949,0.359466 -1.761528,0.359466c-0.372842,0 -0.745315,-0.109843 -1.117788,-0.32947c-0.314798,-0.239885 -0.530246,-0.504702 -0.644858,-0.79445c-0.114601,-0.290128 -0.196093,-0.505093 -0.243347,-0.6453c0.095668,-0.309212 0.119443,-0.499649 0.071408,-0.569355c-0.057274,-0.08025 -0.205027,-0.024943 -0.443913,0.164344c-0.334891,0.650365 -0.535088,1.069787 -0.601317,1.259822c-0.459176,0.929201 -1.041517,1.354471 -1.748881,1.274244c-0.438333,-0.04946 -0.883364,-0.399568 -1.332118,-1.049149c0.210607,-0.699813 0.315167,-1.054582 0.315167,-1.064319c0,-0.070097 -0.028268,-0.105538 -0.085226,-0.105538c-0.03871,0 -0.086703,0.015123 -0.143998,0.045154c-0.419727,0.439669 -0.735643,0.844681 -0.944763,1.214644c-0.239634,0.409685 -0.592763,0.774595 -1.060493,1.094707c-0.525405,0.339587 -1.036307,0.509387 -1.533053,0.509387c-0.850255,0 -1.480599,-0.48952 -1.891392,-1.469355c0.095668,-0.339575 0.169671,-0.602056 0.222515,-0.786658c0.052106,-0.184981 0.078475,-0.317775 0.078475,-0.398002c0,-0.044822 -0.01445,-0.071319 -0.035757,-0.087984c-0.019302,0.028039 -0.143629,0.091518 -0.37955,0.193154c-1.872037,1.029674 -3.309464,1.544126 -4.312282,1.544126c-0.238886,0 -0.577869,-0.137087 -1.017321,-0.412033c-0.439451,-0.274554 -0.714442,-0.51444 -0.824202,-0.719679c-0.109401,-0.204848 -0.188288,-0.377364 -0.235922,-0.517559c0.07626,-0.229768 0.114243,-0.414358 0.114243,-0.554553c0,-0.38983 -0.238147,-0.259764 -0.716298,0.389818c-0.037972,0.050231 -0.156655,0.279619 -0.357959,0.690087c-0.171918,0.349705 -0.314798,0.564682 -0.429779,0.644126c-0.42941,0.320124 -1.093233,0.479794 -1.990741,0.479794c-1.241703,0 -2.273917,-0.494597 -3.094765,-1.484157c-0.076682,-0.090296 -0.420476,-0.659699 -1.031096,-1.70962c-0.392566,-0.65932 -0.76467,-0.989169 -1.117799,-0.989169c-0.697312,0 -1.427744,0.424867 -2.192415,1.274624c-0.686902,0.759793 -1.274823,1.738845 -1.761528,2.938686c-0.32485,0.829499 -0.6549,1.664062 -0.988673,2.50369c-0.36317,0.699813 -0.831279,1.04992 -1.403938,1.04992c-0.658623,0 -1.184777,-0.570138 -1.576225,-1.70924c-0.315167,-0.889859 -0.47294,-1.799584 -0.47294,-2.729165c0,-0.22978 0.010548,-0.52496 0.029006,-0.884414c0.038288,-0.469665 0.061388,-0.894544 0.07183,-1.275015c0.018986,-0.469274 -0.033436,-0.704094 -0.158143,-0.704094c-0.114601,0 -0.205396,0.204836 -0.271636,0.614521c-0.181949,1.09938 -0.272744,1.974057 -0.272744,2.623639c0,1.629796 0.315916,3.009175 0.945881,4.138539c0.601317,1.059267 1.284495,1.589292 2.048417,1.589292"
           stroke-width="0.352778"
           fill-rule="nonzero"
           fill="#939598" />
        <path
           stroke="null"
           id="path444395"
           d="m159.424988,-71.093062c0.009493,0.002206 0.014134,0.011042 0.021201,0.016783c0.007383,-0.011042 0.00211,-0.016783 -0.021201,-0.016783"
           stroke-width="0.352778"
           fill-rule="nonzero"
           fill="#939598" />
        <path
           stroke="null"
           id="path444399"
           d="m174.025246,-87.714837c0.251912,0.526905 0.393315,0.850528 0.424199,0.971248c0.199817,2.171895 0.341209,3.834392 0.424937,4.98596c0.670521,6.297969 0.96262,9.164612 1.340303,12.302299c0.094191,0.965021 0.088601,1.892668 -0.015294,2.780581c-0.084066,0.702149 -0.068877,1.053431 0.046516,1.053431c0.073729,0 0.188657,-0.153444 0.346051,-0.460319c0.408937,-0.801068 0.613225,-2.111915 0.613225,-3.933311c0,-0.515614 -0.021201,-1.047584 -0.062865,-1.596301c-0.178236,-2.150475 -0.307731,-3.596831 -0.85248,-8.03953c-0.45136,-3.730029 -0.66569,-5.74886 -0.644858,-6.056518c0.292848,0.31895 0.571182,0.581821 0.832767,0.79056c0.09493,0.065792 0.162235,0.098136 0.205396,0.098136c0.062865,0 0.09377,-0.0436 0.09377,-0.13124c0,-0.274163 -0.251543,-0.971259 -0.755367,-2.090495c-0.31368,-0.723582 -0.633688,-1.447531 -0.958527,-2.171895c-0.188657,-0.471598 -0.335271,-0.707605 -0.440569,-0.707605c-0.042086,0 -0.072885,0.038524 -0.09377,0.114884c-0.398526,1.272679 -0.566341,1.969384 -0.503455,2.090103"
           stroke-width="0.352778"
           fill-rule="nonzero"
           fill="#939598" />
        <path
           stroke="null"
           id="path444403"
           d="m171.892585,-94.730421c0.209869,0 0.408567,0.147988 0.594619,0.442788c0.18679,0.294801 0.284283,0.621543 0.293586,0.981768c-0.420476,-0.050231 -0.787738,-0.189655 -1.102536,-0.419802c-0.057274,-0.039746 -0.301033,-0.264817 -0.730812,-0.674502c0.228844,-0.220042 0.544391,-0.330253 0.945142,-0.330253m-34.28021,17.062381c1.37528,0 3.051223,-0.750055 5.029318,-2.24937c1.689339,-1.289438 2.884158,-2.483835 3.580731,-3.583215c0.267164,-0.429943 0.477033,-0.984496 0.629596,-1.664454c0.545129,2.438657 1.108865,3.998356 1.691945,4.67791c0.110889,0.129307 0.224003,0.246124 0.337866,0.356347l-0.011181,0.0276c0,0 0.238886,0.298691 0.838346,0.590776c0.013396,0.007733 0.027108,0.01281 0.040925,0.019867c0.036812,0.017554 0.073307,0.034669 0.112745,0.052223c0.123546,0.056849 0.248568,0.105194 0.375458,0.143303c0.508286,0.172136 1.176212,0.310386 2.045062,0.331427c1.003566,0.024943 2.200241,-0.177592 3.286407,-0.433063c1.218625,-0.253134 2.72341,-0.729026 4.521401,-1.433523c2.807876,-1.099368 5.033421,-1.639131 6.676245,-1.619276c0,0 0.878154,0.12034 1.203372,0.209913c0.104528,0.03002 0.186052,-0.030032 0.243358,-0.179917c0.162235,-0.439289 0.314798,-0.92958 0.458057,-1.469343c0.047992,-0.189263 0.005274,-0.294421 -0.129126,-0.315059c-3.199325,-0.419423 -5.324392,-0.774192 -6.375212,-1.064331c-0.06624,-0.019867 -0.840203,-0.294813 -2.320053,-0.824434c-1.12746,-0.410076 -1.947949,-0.494205 -2.418653,-0.542491c-1.85418,-0.190426 -2.616993,1.599421 -2.638943,2.026624c-0.004219,0.080262 -0.007383,0.141369 -0.003164,0.188884c-0.6601,0.655809 -2.136227,0.39684 -2.835786,-0.24884c-0.76987,-0.711128 -1.4471,-2.912604 -0.519445,-5.20172c0,-0.000771 0.000369,-0.001103 0.000738,-0.002206c0.125771,-0.301419 0.24745,-0.577931 0.398146,-0.912062c0.679835,-1.509065 1.094731,-1.355242 1.357802,-1.216992c0.263451,0.137858 0.551078,0.424879 0.715549,1.156241c0.021939,0.098136 0.054321,0.200946 0.093031,0.306484c0.086703,0.406969 0.243347,0.755891 0.475546,1.043694c0.287627,0.353986 0.65452,0.574028 1.1003,0.661253c0.001055,0.000403 0.00211,0.000783 0.00211,0.001103l0,-0.000771c0.144747,0.028039 0.29731,0.042829 0.459165,0.042829c0.801514,0 1.561342,-0.339967 2.27764,-1.019533c0.46773,-0.560009 0.782528,-0.979835 0.945511,-1.259442c0.200186,0.629715 0.319998,0.974367 0.358328,1.034739c0.238147,0.389438 0.654151,0.584537 1.246165,0.584537c0.935839,0 1.771949,-0.869612 2.507223,-2.608836c0.028268,0.500041 0.152932,0.909334 0.372473,1.229458c0.410424,0.60986 1.169883,0.929201 2.27763,0.959565c0.945881,0 1.766739,-0.419814 2.464061,-1.25943c0.191262,-0.220042 0.563356,-0.819773 1.117788,-1.799596c0.381776,0.530025 0.988673,1.014872 1.819583,1.454553c0.725591,0.369963 1.269982,0.554553 1.632772,0.554553c0.324101,0 0.610989,-0.24495 0.859558,-0.734078c0.220279,-0.459927 0.329681,-0.944774 0.329681,-1.454944c0,-0.999298 -0.143629,-1.834241 -0.429779,-2.50369c-0.334512,-0.789386 -0.811555,-1.18428 -1.432217,-1.18428c-0.76467,0 -1.471286,0.644517 -2.120975,1.933564c-0.037972,-0.069327 -0.081112,-0.104316 -0.128746,-0.104316c-0.105678,0 -0.410434,0.384765 -0.916484,1.154675c-0.535457,0.81937 -0.984211,1.30889 -1.347012,1.468963c-0.582711,0.250394 -1.19928,0.375016 -1.848231,0.375016c-0.372093,0 -0.744577,-0.109831 -1.11705,-0.330241c-0.315536,-0.239494 -0.529867,-0.504714 -0.644848,-0.79445c-0.114612,-0.290128 -0.196093,-0.505093 -0.243358,-0.644897c0.09493,-0.309615 0.119074,-0.499661 0.07183,-0.569759c-0.057696,-0.079812 -0.205396,-0.024504 -0.445031,0.165126c-0.333773,0.649973 -0.53397,1.069396 -0.601317,1.259051c-0.458057,0.929984 -1.041517,1.355242 -1.747763,1.274624c-0.439451,-0.04946 -0.883364,-0.399568 -1.332118,-1.049529c0.209489,-0.699042 0.314798,-1.054594 0.314798,-1.064331c0,-0.070097 -0.028268,-0.104755 -0.085226,-0.104755c-0.03871,0 -0.086703,0.015229 -0.143998,0.04481c-0.420476,0.439669 -0.735274,0.844681 -0.945511,1.214655c-0.238516,0.409685 -0.592014,0.774192 -1.059744,1.094316c-0.525785,0.339979 -1.037055,0.509767 -1.533064,0.509767c-0.622898,0 -1.127091,-0.265979 -1.514078,-0.79171c-0.162984,-0.243016 -0.394803,-0.645312 -0.527272,-1.139114c-0.219161,-0.817425 -0.602425,-1.448314 -0.958907,-1.448314c-0.312193,0 -2.140319,2.028961 -2.90462,4.306014l-0.000369,0.00038c0,0 -1.122999,2.998666 0,5.843498c1.123368,2.844452 3.673383,1.683134 4.30744,0.687359c0.3029,-0.475121 0.434251,-0.739155 0.487454,-0.960359c0.474058,-0.132011 1.413621,-0.230147 3.076169,0.17369c1.288588,0.38983 2.540332,0.729417 3.753008,1.019545c-1.299378,0.44006 -2.598007,0.884794 -3.896647,1.334604c-0.344564,0.110982 -0.757223,0.221204 -1.208952,0.324785l-0.004219,-0.004412c0,0 -2.06331,0.500812 -4.088279,0.551445c-0.008438,0.000391 -0.016033,0.000391 -0.024576,0.000391c-1.269982,0.029581 -2.521357,-0.119949 -3.235788,-0.682686c-0.191632,-0.181862 -0.370986,-0.37893 -0.522061,-0.579876c-0.61024,-0.789386 -1.044861,-1.919141 -1.302353,-3.388484c-0.4402,-2.479542 -0.864768,-4.378436 -1.275561,-5.697847c-1.126722,-3.618644 -1.84898,-5.427977 -2.163029,-5.427977c-0.047992,0 -0.090816,0.030032 -0.128746,0.089976l-0.257872,1.7696c0.449134,1.529311 0.891929,2.928557 1.332498,4.198116c0.562987,1.759471 0.863271,2.749031 0.901232,2.968682c0.114981,0.619977 0.201304,1.084578 0.257861,1.394561c-0.505311,1.049541 -1.30384,2.084279 -2.392231,3.103433c-0.334153,0.309983 -0.86923,0.74499 -1.603765,1.304217c-0.86923,0.660102 -1.867575,1.220111 -2.994297,1.679635c-0.879272,0.350108 -1.456772,0.524972 -1.733619,0.524972c-1.165422,0 -1.776411,-0.544827 -1.833717,-1.634849c-0.066662,-1.139114 0.510891,-2.943371 1.73325,-5.412404c0.161866,-0.32985 0.243358,-0.584929 0.243358,-0.764454c0,-0.089976 -0.028268,-0.135534 -0.085226,-0.135534c-0.124653,0 -0.315916,0.220422 -0.573408,0.660102c-1.288957,2.259108 -1.934184,4.272899 -1.934184,6.042499c0,2.25912 0.72597,3.388876 2.177542,3.388876"
           stroke-width="0.352778"
           fill-rule="nonzero"
           fill="#939598" />
        <path
           stroke="null"
           id="path444407"
           d="m166.286684,-78.786694c0.047676,-0.32985 0.100837,-0.659711 0.158143,-0.989181c0.037234,-0.180296 0.027952,-0.285063 -0.029006,-0.315439c-0.057696,-0.030032 -0.119812,-0.054536 -0.186421,-0.074735c-0.573039,-0.299865 -1.003187,-0.509767 -1.289706,-0.629715l-0.243347,-0.164747c-0.07626,-0.009928 -0.128746,0.079491 -0.157024,0.269502c-0.152942,0.639844 -0.282427,1.130147 -0.387366,1.469734c0.018986,0.179917 0.045355,0.299865 0.078897,0.359846c0.033436,0.059933 0.270149,0.210292 0.708851,0.449786c0.477782,0.259764 0.802632,0.38983 0.974908,0.38983c0.14289,0 0.266795,-0.254688 0.372104,-0.764857"
           stroke-width="0.352778"
           fill-rule="nonzero"
           fill="#939598" />
        <path
           stroke="null"
           id="path444411"
           d="m148.372057,-72.802527c0.563366,0.309983 1.126722,0.619977 1.690088,0.929972c0.382145,-0.509767 0.573408,-1.109509 0.573408,-1.799584c0,-0.199784 -0.248568,-0.419814 -0.745326,-0.659711c-0.697312,-0.349705 -1.169883,-0.629715 -1.418452,-0.839628c-0.343076,1.299555 -0.515353,1.919533 -0.515353,1.859173c0,0.179929 0.138049,0.350108 0.415634,0.509778"
           stroke-width="0.352778"
           fill-rule="nonzero"
           fill="#939598" />
        <path
           stroke="null"
           id="path444415"
           d="m137.390703,-71.882174c0,0.050231 0.010548,0.08025 0.029006,0.089964c0.353118,0.11996 0.730432,0.339991 1.131933,0.659711c0.353118,0.279999 0.553314,0.420205 0.601686,0.420205c0.03755,0 0.066556,-0.025287 0.085542,-0.075186c0.324839,-1.119235 0.486705,-1.719369 0.486705,-1.799584c0,-0.089537 -0.018564,-0.149541 -0.056958,-0.179537c-0.625503,-0.382429 -1.155749,-0.69903 -1.599673,-0.956837c0.00038,-0.001103 0.00211,-0.001103 0.00211,-0.002206c0.334142,-0.709954 0.501968,-1.31941 0.501968,-1.82958c0,-0.089526 -0.014872,-0.144868 -0.04314,-0.164735c-0.238527,-0.109831 -0.563366,-0.335306 -0.97417,-0.674881c-0.36279,-0.299877 -0.573408,-0.44981 -0.630703,-0.44981c-0.018986,0 -0.03312,0.009939 -0.042824,0.030032c-0.305495,1.329539 -0.458437,1.959266 -0.458437,1.889548c0,0.089964 0.019302,0.149933 0.057696,0.179525c0.736022,0.57015 1.203003,0.907792 1.409528,1.019545c-0.046516,0.112156 -0.12689,0.349728 -0.242989,0.719691c-0.171169,0.580255 -0.257492,0.954891 -0.257492,1.124691"
           stroke-width="0.352778"
           fill-rule="nonzero"
           fill="#939598" />
        <path
           stroke="null"
           id="path444419"
           d="m151.590167,-95.243817l11.203226,-3.911499c0.320378,-0.066563 0.513127,-0.201729 0.57788,-0.403066c0.640755,-0.334914 1.121142,-0.770313 1.250626,-1.97835c-0.38512,0.604807 -0.866625,1.0067 -1.443007,1.208037l-9.298069,3.189875c0.447636,-0.540533 0.752013,-1.147666 0.908668,-1.823341c0.158522,-0.683065 0.029428,-1.076785 -0.387725,-1.183106c-0.469966,-0.119557 -0.768394,0.093499 -0.895273,0.639844c-0.088601,0.381658 -0.103473,0.624271 -0.043879,0.725906c0.270887,-0.450972 0.4841,-0.657754 0.640755,-0.617641c0.234424,0.059613 0.301033,0.308038 0.199817,0.74499c-0.056958,0.245733 -0.221028,0.593895 -0.491167,1.04603c-0.136562,0.227431 -0.245214,0.427986 -0.327455,0.60323l-1.41398,0.485238c-1.025885,0.337642 -1.603765,1.175325 -1.731024,2.516939c0.274611,-0.488749 0.801514,-0.97477 1.250637,-1.243086"
           stroke-width="0.352778"
           fill-rule="nonzero"
           fill="#939598" />
        <path
           stroke="null"
           id="path444423"
           d="m161.53879,-78.760446c0.432753,-0.22666 0.692112,-0.748501 0.780291,-1.564752c-0.260835,0.408511 -0.586054,0.680337 -0.975277,0.81625l-7.084433,2.516535c-0.69323,0.227835 -1.083561,0.794059 -1.169883,1.700677c0.30251,-0.22666 0.606897,-0.430714 0.910155,-0.612197l7.148816,-2.584296c0.216187,-0.045154 0.34642,-0.135913 0.39033,-0.272218"
           stroke-width="0.352778"
           fill-rule="nonzero"
           fill="#939598" />
        <path
           stroke="null"
           id="path444427"
           d="m157.288677,-94.290788l0.827176,0c0.799277,-0.317384 1.267756,-0.505093 1.406543,-0.562725c0.468479,-0.230942 0.771368,-0.447473 0.909797,-0.649973c0.1373,-0.201729 0.233675,-0.57716 0.289863,-1.125083c0,-0.057288 -0.028268,-0.130078 -0.083011,-0.216923l-2.192425,0c-0.248189,0 -0.523918,0.245733 -0.827176,0.736427l0,0.519113l0.454703,-0.346597l0.124284,0l1.819952,0c-0.413409,0.433063 -0.992396,0.838074 -1.736973,1.21271c-0.248189,0.115667 -0.579357,0.259752 -0.992765,0.433051"
           stroke-width="0.352778"
           fill-rule="nonzero"
           fill="#939598" />
        <path
           stroke="null"
           id="path444431"
           d="m162.99013,-73.02047c0.494521,0 0.795185,-0.295963 0.901232,-0.888305c0.247071,0.444342 0.477402,0.665938 0.689496,0.665938c0.530246,0 0.795185,-0.388276 0.795185,-1.165196c0,-0.665938 -0.141393,-1.331473 -0.424199,-1.997411c-0.106047,0.073964 -0.230331,0.276879 -0.370986,0.61024c0.246712,0.924919 0.370986,1.424177 0.370986,1.498165c0,0.110994 -0.106047,0.203283 -0.317772,0.278065c-0.248189,-0.074735 -0.4067,-0.389059 -0.477771,-0.944003c-0.105267,-0.702552 -0.211736,-1.12819 -0.318152,-1.27696c-0.07067,0.075174 -0.1321,0.158508 -0.185303,0.250406c-0.052844,0.092289 -0.080057,0.175647 -0.080057,0.250026c0.141403,0.517939 0.212474,0.942817 0.212474,1.275798c0,0.407728 -0.229962,0.61024 -0.689507,0.61024c-0.24745,0 -0.370986,-0.424487 -0.370986,-1.275798l0,-0.943991c-0.389592,0.370354 -0.619174,0.648028 -0.689507,0.83301l0,0.443559c0.035019,-0.073632 0.123535,-0.166289 0.265308,-0.277282l0,0.665938c-0.035757,0.924919 0.193868,1.387574 0.689507,1.387574"
           stroke-width="0.352778"
           fill-rule="nonzero"
           fill="#939598" />
        <path
           stroke="null"
           id="path444435"
           d="m145.871637,-75.975464c0.494152,0 0.795185,-0.295975 0.901232,-0.888317c0.246701,0.444354 0.477033,0.666341 0.689127,0.666341c0.530246,0 0.795185,-0.388276 0.795185,-1.165599c0,-0.665938 -0.141403,-1.331473 -0.424199,-1.997411c-0.106047,0.073964 -0.229962,0.277271 -0.370986,0.610251c0.247081,0.925299 0.370986,1.424557 0.370986,1.498153c0,0.111385 -0.106047,0.203686 -0.317772,0.278065c-0.248189,-0.074403 -0.406711,-0.389059 -0.477402,-0.944003c-0.105678,-0.702149 -0.212105,-1.12819 -0.318152,-1.276949c-0.071092,0.075506 -0.132469,0.158496 -0.185683,0.250797c-0.052844,0.092277 -0.079952,0.175244 -0.079952,0.249623c0.141393,0.51833 0.212843,0.942817 0.212843,1.275798c0,0.407728 -0.230331,0.61024 -0.689876,0.61024c-0.24745,0 -0.370986,-0.424487 -0.370986,-1.275407l0,-0.943991c-0.389592,0.369963 -0.619185,0.648016 -0.689138,0.832618l0,0.443559c0.035019,-0.073181 0.123535,-0.166289 0.264939,-0.277271l0,0.665926c-0.035335,0.925311 0.194237,1.387574 0.689876,1.387574"
           stroke-width="0.352778"
           fill-rule="nonzero"
           fill="#939598" />
        <path
           stroke="null"
           id="path444439"
           d="m164.203439,-98.243326c0,0.838833 0.476295,1.257485 1.431099,1.257485c0.457319,0 0.838715,0.759793 1.14421,2.27665l0.343456,0c0.57192,-2.675044 1.029598,-4.012755 1.373423,-4.012755c0.114612,0 0.304756,0.179537 0.57229,0.538588l0.343076,-0.059945l0.056958,-1.077959c-0.266795,-0.478608 -0.534708,-0.718505 -0.801134,-0.718505c-0.457688,0 -0.858071,0.559618 -1.201516,1.676516c-0.114232,0.40035 -0.267544,1.118464 -0.458057,2.15631c-0.267164,-0.637496 -0.457309,-1.117278 -0.57229,-1.437402c-0.457319,-0.997341 -0.992396,-1.497002 -1.602268,-1.497002c-0.420107,0 -0.629226,0.299094 -0.629226,0.898043"
           stroke-width="0.352778"
           fill-rule="nonzero"
           fill="#939598" />
        <path
           stroke="null"
           id="path444443"
           d="m141.538334,-88.485731c-0.292099,0 -0.437964,0.207956 -0.437964,0.624662c0,0.583766 0.331548,0.875068 0.99574,0.875068c0.318152,0 0.583091,0.528068 0.795934,1.583444l0.238516,0c0.398146,-1.860727 0.716288,-2.791481 0.955553,-2.791481c0.080057,0 0.211725,0.125001 0.398146,0.374636l0.238516,-0.04162l0.039871,-0.749664c-0.185683,-0.33336 -0.372104,-0.499661 -0.557407,-0.499661c-0.318152,0 -0.596855,0.389438 -0.835741,1.165979c-0.079214,0.278053 -0.186052,0.778094 -0.318521,1.50011c-0.186052,-0.443559 -0.318141,-0.777703 -0.398146,-1.000069c-0.318152,-0.693977 -0.690245,-1.041357 -1.114444,-1.041357"
           stroke-width="0.352778"
           fill-rule="nonzero"
           fill="#939598" />
        <path
           stroke="null"
           id="path444447"
           d="m152.179544,-66.600832c-0.28056,0 -0.525405,0.342695 -0.736392,1.026934c-0.069615,0.245353 -0.163353,0.685022 -0.279821,1.320585c-0.163722,-0.390992 -0.280191,-0.684239 -0.350513,-0.880512c-0.28057,-0.611022 -0.608015,-0.916735 -0.981237,-0.916735c-0.257492,0 -0.385499,0.183416 -0.385499,0.549892c0,0.514048 0.29173,0.770301 0.876308,0.770301c0.280191,0 0.513866,0.46498 0.701036,1.394181l0.209869,0c0.350143,-1.63836 0.630703,-2.457729 0.841321,-2.457729c0.069932,0 0.186421,0.109843 0.350143,0.330229l0.210607,-0.03697l0.034597,-0.660102c-0.163353,-0.293247 -0.327445,-0.44006 -0.490429,-0.44006"
           stroke-width="0.352778"
           fill-rule="nonzero"
           fill="#939598" />
        <path
           stroke="null"
           id="path444451"
           d="m141.062672,-94.319681c0.130233,-0.316233 0.281678,-0.476675 0.455821,-0.476675c0.215448,0 0.32447,0.250406 0.32447,0.748501l0,0.272206l-0.780291,-0.544032zm-0.68206,4.387379c0.801134,-0.702541 1.332118,-1.55346 1.592216,-2.550801c0.259728,0.182253 0.454714,0.272218 0.584947,0.272218c0.216567,0 0.367642,-0.294801 0.454714,-0.884414l-0.519836,-0.272597c0.086386,-0.1807 0.129864,-0.566248 0.129864,-1.155861c0,-0.952555 -0.303259,-1.428435 -0.909786,-1.428435c-0.347538,0 -0.693969,0.204445 -1.03965,0.612185c-0.347169,0.408522 -0.519456,0.81625 -0.519456,1.22399c0,0.408534 0.172287,0.72631 0.519456,0.952579l0.909417,0.544032c-1.126722,1.542168 -2.556713,2.744358 -4.288845,3.605015c-0.477402,0.182253 -0.866994,0.34037 -1.169514,0.476675l0.584578,0.067334c1.645798,-0.271826 2.869275,-0.758239 3.671896,-1.461954"
           stroke-width="0.352778"
           fill-rule="nonzero"
           fill="#939598" />
        <path
           stroke="null"
           id="path444455"
           d="m148.870259,-90.730713c0.282427,0 0.51164,-0.128903 0.688758,-0.387885c0.17601,-0.554162 0.264939,-0.960739 0.264939,-1.219317c0,-0.221987 -0.052844,-0.406577 -0.158891,-0.554565c-0.247071,0.702161 -0.476664,1.05304 -0.688758,1.05304c-0.317403,0 -0.476664,-0.295192 -0.476664,-0.887142c0,-0.368006 0.114612,-0.914778 0.344574,-1.634458c0.229213,-0.720854 0.344184,-1.247759 0.344184,-1.579945c-0.847639,1.182714 -1.271469,2.457741 -1.271469,3.824263c0,0.924528 0.318521,1.386009 0.953327,1.386009"
           stroke-width="0.352778"
           fill-rule="nonzero"
           fill="#939598" />
        <path
           stroke="null"
           id="path444459"
           d="m164.316447,-89.132265c-0.439082,0.612197 -0.658623,1.27307 -0.658623,1.980675c0,0.478608 0.16522,0.717734 0.494152,0.717734c0.145865,0 0.264939,-0.066575 0.356472,-0.200958c0.091555,-0.287008 0.137311,-0.497301 0.137311,-0.63166c0,-0.114884 -0.027108,-0.210292 -0.082273,-0.286629c-0.128366,0.363345 -0.247071,0.545207 -0.356841,0.545207c-0.164091,0 -0.246701,-0.15304 -0.246701,-0.459927c0,-0.190437 0.059173,-0.473152 0.178236,-0.846234c0.118704,-0.373094 0.178236,-0.646474 0.178236,-0.818207"
           stroke-width="0.352778"
           fill-rule="nonzero"
           fill="#939598" />
        <path
           stroke="null"
           id="path444463"
           d="m174.502353,-68.571224c-0.485218,0.676838 -0.727089,1.406255 -0.727089,2.188251c0,0.529633 0.18159,0.793276 0.545129,0.793276c0.161497,0 0.292848,-0.073632 0.394054,-0.221987c0.101258,-0.317384 0.151824,-0.549488 0.151824,-0.697476c0,-0.126958 -0.030483,-0.232875 -0.091133,-0.317396c-0.141034,0.401904 -0.272754,0.602459 -0.394064,0.602459c-0.18158,0 -0.272744,-0.169005 -0.272744,-0.50743c0,-0.210684 0.065502,-0.523406 0.197211,-0.935819c0.130982,-0.412021 0.196842,-0.713832 0.196842,-0.903878"
           stroke-width="0.352778"
           fill-rule="nonzero"
           fill="#939598" />
        <path
           stroke="null"
           id="path444467"
           d="m139.886017,-86.670882c-0.847649,1.182726 -1.271469,2.457741 -1.271469,3.824275c0,0.924516 0.318141,1.385997 0.953327,1.385997c0.282047,0 0.512009,-0.128903 0.688378,-0.387481c0.176749,-0.554565 0.265308,-0.961142 0.265308,-1.21972c0,-0.221975 -0.053161,-0.406577 -0.15925,-0.554565c-0.247081,0.702161 -0.476295,1.053052 -0.688389,1.053052c-0.317783,0 -0.476664,-0.295584 -0.476664,-0.887142c0,-0.368018 0.114232,-0.914399 0.344194,-1.634469c0.229213,-0.720842 0.344564,-1.247368 0.344564,-1.579945"
           stroke-width="0.352778"
           fill-rule="nonzero"
           fill="#939598" />
        <path
           stroke="null"
           id="path444471"
           d="m169.915418,-73.748736c0.585316,0 0.878164,-0.339979 0.878164,-1.021099c0,-0.475904 -0.048731,-0.766032 -0.146245,-0.867667c-0.195344,0.612185 -0.389961,0.91906 -0.584936,0.91906c-0.292848,0 -0.439082,-0.272218 -0.439082,-0.817425c0,-0.305713 0.097883,-0.765249 0.292099,-1.377825c0.195355,-0.612576 0.293217,-1.071733 0.293217,-1.377825c-0.716298,1.020719 -1.073139,2.10997 -1.073139,3.266199c0,0.851311 0.260097,1.276581 0.779922,1.276581"
           stroke-width="0.352778"
           fill-rule="nonzero"
           fill="#939598" />
        <path
           stroke="null"
           id="path444475"
           d="m142.760387,-69.510969c-0.715918,1.020707 -1.073139,2.109958 -1.073139,3.266199c0,0.851311 0.260097,1.276189 0.780291,1.276189c0.585316,0 0.878164,-0.339991 0.878164,-1.020719c0,-0.476283 -0.048731,-0.76602 -0.146234,-0.867667c-0.195724,0.612197 -0.390341,0.91868 -0.585685,0.91868c-0.292479,0 -0.438713,-0.271826 -0.438713,-0.817033c0,-0.306104 0.097461,-0.765237 0.292468,-1.377825c0.194986,-0.612588 0.292848,-1.072124 0.292848,-1.377825"
           stroke-width="0.352778"
           fill-rule="nonzero"
           fill="#939598" />
        <path
           stroke="null"
           id="path444479"
           d="m171.02808,-100.334259c0.209869,0 0.315167,0.19549 0.315167,0.586886c0,0.219247 -0.070354,0.5495 -0.209858,0.989169c-0.140285,0.44006 -0.210238,0.769519 -0.210238,0.989561c0.513866,-0.732928 0.77025,-1.515304 0.77025,-2.345574c0,-0.611414 -0.186801,-0.916356 -0.560012,-0.916356c-0.420476,0 -0.630714,0.244191 -0.630714,0.733308c0,0.341544 0.035019,0.549892 0.10495,0.622717c0.140285,-0.439669 0.280191,-0.659711 0.420476,-0.659711"
           stroke-width="0.352778"
           fill-rule="nonzero"
           fill="#939598" />
        <path
           stroke="null"
           id="path444483"
           d="m155.57281,-72.12557c-0.229962,0.598948 -0.353498,1.051474 -0.371355,1.356796c0.773224,-0.973987 1.192213,-2.038698 1.258442,-3.192994c0.048731,-0.849757 -0.186421,-1.290209 -0.705877,-1.322909c-0.584198,-0.03665 -0.896021,0.283889 -0.934711,0.963846c-0.02753,0.475109 0.004219,0.767585 0.095985,0.875056c0.230331,-0.598557 0.442426,-0.892575 0.637042,-0.880109c0.291719,0.018325 0.422701,0.299083 0.391448,0.843115c-0.017509,0.305321 -0.141403,0.757859 -0.370986,1.357187"
           stroke-width="0.352778"
           fill-rule="nonzero"
           fill="#939598" />
        <path
           stroke="null"
           id="path444487"
           d="m140.668766,-73.434638c0.587173,-0.739926 0.905694,-1.549178 0.955933,-2.425788c0.037234,-0.646083 -0.141772,-0.980618 -0.536206,-1.005525c-0.443544,-0.028039 -0.680942,0.215737 -0.710339,0.732133c-0.020779,0.361399 0.004219,0.583375 0.073307,0.665155c0.174882,-0.454851 0.33563,-0.678 0.4841,-0.668666c0.221397,0.014019 0.320757,0.227431 0.29731,0.640627c-0.013818,0.232105 -0.107534,0.575974 -0.282047,1.031228c-0.174892,0.454863 -0.269031,0.798732 -0.282058,1.030836"
           stroke-width="0.352778"
           fill-rule="nonzero"
           fill="#939598" />
        <path
           stroke="null"
           id="path444491"
           d="m152.625799,-85.729987c0.587173,-0.739938 0.905694,-1.54957 0.955933,-2.426203c0.037234,-0.646059 -0.141772,-0.980594 -0.536206,-1.005514c-0.443544,-0.0276 -0.680942,0.216128 -0.710339,0.732525c-0.020885,0.361008 0.004219,0.582995 0.073307,0.664776c0.174882,-0.454875 0.33563,-0.678012 0.483731,-0.668286c0.221767,0.013581 0.321126,0.227052 0.297679,0.640247c-0.013712,0.232093 -0.107534,0.575974 -0.282047,1.031216c-0.174892,0.455254 -0.269031,0.798744 -0.282058,1.03124"
           stroke-width="0.352778"
           fill-rule="nonzero"
           fill="#939598" />
        <path
           stroke="null"
           id="path444495"
           d="m169.159576,-89.348642c-0.18159,-0.142543 -0.303259,-0.237952 -0.363919,-0.285466c-0.257861,-0.190817 -0.455072,-0.285834 -0.591634,-0.285834c-0.197222,0.206402 -0.325968,0.380863 -0.386248,0.523786l0.340851,0.047467c-0.151824,0.063918 -0.242989,0.111373 -0.273124,0.142923l-0.204658,0.142923c-0.106796,0.063479 -0.174513,0.198621 -0.204658,0.405012c-0.015294,0.12735 -0.0231,0.222367 -0.0231,0.285455c0.24224,0.667112 0.424937,1.381727 0.546247,2.143856c0.045355,0.23794 0.098622,0.587265 0.159261,1.047181l0.068455,-1.190495c-0.061072,-0.380863 -0.106427,-0.681903 -0.136931,-0.905052c-0.106427,-0.619206 -0.204658,-1.079134 -0.295822,-1.380944c0.288007,-0.174852 0.675362,-0.261697 1.16058,-0.261697l0.2047,-0.429113z"
           stroke-width="0.352778"
           fill-rule="nonzero"
           fill="#939598" />
        <path
           stroke="null"
           id="path444499"
           d="m164.191836,-65.313862c0.220659,-0.102774 0.427543,-0.205228 0.624385,-0.307646c0.292848,0.204848 0.55034,0.307646 0.769881,0.307646c0.269031,0 0.611728,-0.218476 1.027742,-0.653081c0.073307,0.077048 0.158512,0.153823 0.256374,0.230551c0.097461,0.076716 0.195735,0.114884 0.293966,0.114884c0.537313,0 0.807083,-0.48563 0.807083,-1.458834l-0.220279,0.191991c-0.0982,0.409685 -0.245214,0.614142 -0.43982,0.614142c-0.0982,0 -0.196842,-0.051002 -0.293966,-0.153432c-0.049469,-0.025287 -0.0982,-0.076728 -0.146983,-0.153444l-0.292837,0.306875c-0.196473,0.230539 -0.403736,0.345826 -0.624016,0.345826c-0.171907,0 -0.391828,-0.089526 -0.66011,-0.269098c-0.343815,0.179525 -0.587921,0.294801 -0.734156,0.345802c-0.562617,0.255482 -1.076863,0.447865 -1.5405,0.576365c-2.398191,0.58806 -4.281398,0.882469 -5.650729,0.882469c0.317772,0.077167 0.794805,0.154226 1.431468,0.230942l0.183077,0c1.540869,0 2.885276,-0.20524 4.036184,-0.614533c0.292848,-0.102442 0.684296,-0.282347 1.173238,-0.537426"
           stroke-width="0.352778"
           fill-rule="nonzero"
           fill="#939598" />
        <path
           stroke="null"
           id="path444503"
           d="m119.315803,-44.839535l-0.484849,0.588831c-0.03871,0.060716 -0.135813,0.121502 -0.135813,0.202891c0,0.040849 0.039027,0.101671 0.116468,0.101671l2.386282,0c0.077737,0 0.116468,-0.060716 0.116468,-0.101671c0,-0.081353 -0.077737,-0.142152 -0.135813,-0.223138l-0.40746,-0.548338c-0.116468,-0.162387 -0.135813,-0.345043 -0.135813,-0.588831l0,-9.827419l0.03871,0l1.571384,11.106336c0.019724,0.101671 0.039027,0.183036 0.097145,0.183036l0.426804,0c0.097145,0 0.135813,-0.060716 0.155168,-0.162398l1.47464,-11.126974l0.039027,0l0,9.827419c0,0.243787 -0.019724,0.426444 -0.136193,0.588831l-0.40708,0.548338c-0.058751,0.081021 -0.136182,0.141749 -0.136182,0.223138c0,0.040849 0.019302,0.101671 0.116468,0.101671l2.716332,0c0.077421,0 0.116099,-0.060716 0.116099,-0.101671c0,-0.081353 -0.077421,-0.142152 -0.135444,-0.202891l-0.485218,-0.588831c-0.116468,-0.162398 -0.155168,-0.324797 -0.155168,-0.568584l0,-12.305015c0,-0.243787 0.03871,-0.406186 0.155168,-0.568584l0.485218,-0.588439c0.058013,-0.061154 0.135444,-0.121894 0.135444,-0.203295c0,-0.040505 -0.03871,-0.101671 -0.116099,-0.101671l-2.425351,0c-0.135823,0 -0.193868,0.142532 -0.213212,0.345435l-1.183659,8.791921l-0.03871,0l-1.280772,-8.791921c-0.018986,-0.202903 -0.096723,-0.345435 -0.271257,-0.345435l-2.366938,0c-0.077421,0 -0.116468,0.061166 -0.116468,0.101671c0,0.081365 0.097145,0.142152 0.135813,0.203295l0.484849,0.588439c0.116468,0.162398 0.174892,0.324797 0.174892,0.568584l0,12.305015c0,0.243787 -0.058435,0.406186 -0.174892,0.568584"
           stroke-width="0.352778"
           fill-rule="nonzero"
           fill="#939598" />
        <path
           stroke="null"
           id="path444507"
           d="m129.657246,-51.337134l0,5.3197c0,0.568584 -0.349036,1.197908 -0.776199,1.197908c-0.426804,0 -0.640386,-0.466925 -0.640386,-2.781352c0,-2.071422 0.310326,-2.782135 1.377885,-3.736256l0.0387,0zm-0.388105,-0.568584c-2.134001,1.786739 -2.464051,2.395816 -2.464051,4.67013c0,2.781744 0.931367,3.289577 1.687852,3.289577c0.523918,0 1.028491,-0.406186 1.338816,-0.771867c0.232937,0.365681 0.543273,0.771867 1.14459,0.771867c0.485218,0 0.931367,-0.60948 1.008766,-1.198299c0,-0.060716 -0.019302,-0.101232 -0.058013,-0.101232c-0.039027,0 -0.058435,0.040517 -0.097145,0.081353c-0.155168,0.243408 -0.36838,0.344652 -0.562617,0.344652c-0.174892,0 -0.252281,-0.243396 -0.252281,-0.50743l0,-7.370484c0,-2.091657 -1.222358,-2.538348 -1.920789,-2.538348c-1.086535,0 -2.192056,1.421449 -2.192056,1.665236c0,0.060716 0.018986,0.10122 0.058013,0.10122c0.058013,0 0.116468,-0.020199 0.155168,-0.060716c0.349025,-0.36529 1.164304,-0.832606 1.726921,-0.832606c0.621031,0 0.814899,0.223529 0.814899,1.116899c0,0.832227 0,1.015263 -0.388105,1.340048"
           stroke-width="0.352778"
           fill-rule="nonzero"
           fill="#939598" />
        <path
           stroke="null"
           id="path444511"
           d="m134.352126,-45.692566c0,0.52808 -0.193868,0.873123 -0.620662,0.873123c-0.718155,0 -1.164304,-1.481809 -1.47464,-3.126787c-0.019408,-0.101671 -0.019408,-0.182657 -0.116099,-0.182657c-0.058751,0 -0.077737,0.081033 -0.077737,0.141761l0,3.898654c0,0.081353 0.018986,0.142152 0.058013,0.142152c0.077737,0 0.135823,-0.060716 0.193868,-0.101232l0.504573,-0.548326c0.290981,0.385928 0.621031,0.649582 1.164304,0.649582c0.814529,0 1.668128,-0.771476 1.668128,-2.030123c0,-1.319814 -0.523548,-2.741642 -1.261048,-3.980055c-0.77583,-1.299543 -1.183279,-2.456959 -1.183279,-3.309432c0,-0.609469 0.077737,-1.096652 0.485218,-1.096652c0.36838,0 0.640017,0.365681 0.892298,1.015263c0.329681,0.873111 0.465494,1.482188 0.581962,2.111903c0.019302,0.101232 0.058435,0.182265 0.116468,0.182265c0.077421,0 0.116099,-0.081033 0.116099,-0.162387l0,-3.816874c0,-0.101671 -0.03871,-0.203295 -0.077421,-0.203295c-0.058013,0 -0.096723,0.081033 -0.135813,0.121894l-0.562617,0.527688c-0.329681,-0.405794 -0.679086,-0.649582 -1.14459,-0.649582c-0.69843,0 -1.474629,0.852865 -1.474629,2.172666c0,1.238413 0.407449,2.497463 1.10588,3.715618c0.621041,1.055756 1.241703,2.396196 1.241703,3.654867"
           stroke-width="0.352778"
           fill-rule="nonzero"
           fill="#939598" />
        <path
           stroke="null"
           id="path444515"
           d="m135.807084,-42.159522c-0.387725,0 -0.678717,-0.304147 -0.833874,-0.811969c-0.019724,-0.060716 -0.058013,-0.121894 -0.116848,-0.121894c-0.038288,0 -0.077421,0.061154 -0.077421,0.14214c0,0.812372 0.388094,1.685483 1.358161,1.685483c0.970077,0 1.707207,-1.03551 1.707207,-3.025922l0,-10.822436c0,-0.081033 -0.03871,-0.121514 -0.096723,-0.121514l-1.862744,0c-0.058013,0 -0.116468,0.020199 -0.116468,0.081033c0,0.040505 0.03871,0.101671 0.077421,0.162778l0.582342,0.568181c0.03871,0.040517 0.058013,0.081365 0.058013,0.16279l0,10.091465c0,1.664857 -0.174513,2.009888 -0.679086,2.009888"
           stroke-width="0.352778"
           fill-rule="nonzero"
           fill="#939598" />
        <path
           stroke="null"
           id="path444519"
           d="m138.949957,-44.880242l-0.601317,0.710724c-0.039027,0.040517 -0.077421,0.101671 -0.077421,0.141761c0,0.061487 0.058013,0.081353 0.116099,0.081353l2.561175,0c0.077421,0 0.116468,-0.019867 0.116468,-0.081353c0,-0.040078 -0.039027,-0.101232 -0.077737,-0.141761l-0.601686,-0.710724c-0.03871,-0.040505 -0.03871,-0.101671 -0.03871,-0.182633l0,-10.050972c0,-0.081033 -0.03871,-0.121894 -0.096723,-0.121894l-1.862744,0c-0.058013,0 -0.116099,0.020199 -0.116099,0.081021c0,0.040849 0.038288,0.101671 0.077421,0.162802l0.581972,0.568181c0.039027,0.040849 0.058013,0.081353 0.058013,0.162778l0,9.198107c0,0.081033 0,0.14214 -0.03871,0.182645"
           stroke-width="0.352778"
           fill-rule="nonzero"
           fill="#939598" />
        <path
           stroke="null"
           id="path444523"
           d="m143.393041,-44.819372c-0.504193,0 -0.69843,-0.466925 -0.69843,-5.360596c0,-3.756111 0.232937,-4.182543 0.717775,-4.182543c0.271636,0 0.853978,0.52808 0.853978,1.522693l0,6.396105c0,0.995017 -0.407829,1.62434 -0.873323,1.62434m1.008766,0.873123l1.80469,0c0.077421,0 0.135444,-0.020199 0.135444,-0.081353c0,-0.040078 -0.03871,-0.101671 -0.097145,-0.141761l-0.601317,-0.710713c-0.019302,-0.040849 -0.019302,-0.101683 -0.019302,-0.182657l0,-13.990546c0,-0.081021 -0.03871,-0.12149 -0.116099,-0.12149l-1.843769,0c-0.077421,0 -0.135444,0.019867 -0.135444,0.081353c0,0.040066 0.03871,0.101232 0.097145,0.141749l0.562617,0.589222c0.058013,0.040066 0.077737,0.081021 0.077737,0.162398l0,3.674722l-0.039027,0c-0.33006,-0.385548 -0.718155,-0.710345 -1.280403,-0.710345c-0.795554,0 -1.765621,0.5277 -1.765621,5.055666c0,5.725897 0.892298,6.233719 1.746276,6.233719c0.620662,0 0.969687,-0.36529 1.299747,-0.771476l0.039027,0l0,0.690087c0,0.040849 0.058013,0.081365 0.135444,0.081365"
           stroke-width="0.352778"
           fill-rule="nonzero"
           fill="#939598" />
        <path
           stroke="null"
           id="path444527"
           d="m150.06686,-48.717943l0.640386,-4.994915l0.03871,0l0.679086,4.974668c0.019302,0.081021 -0.019302,0.14214 -0.077737,0.14214l-1.221979,0c-0.03871,0 -0.077737,-0.040517 -0.058435,-0.121894m0.058435,4.406084l-0.426804,-0.466925c-0.077737,-0.101671 -0.116468,-0.22315 -0.097145,-0.365302l0.290981,-2.233809c0.019302,-0.081353 0.058435,-0.14214 0.116468,-0.14214l1.43556,0c0.097145,0 0.155168,0.081353 0.174892,0.183036l0.290981,2.132162c0.019302,0.182253 -0.019724,0.324394 -0.097145,0.405794l-0.523928,0.548326c-0.058013,0.060716 -0.135813,0.121502 -0.135813,0.182645c0,0.061166 0.03871,0.121894 0.135813,0.121894l2.793742,0c0.097145,0 0.135813,-0.060716 0.135813,-0.121894c0,-0.061154 -0.058013,-0.121894 -0.116089,-0.182645l-0.562997,-0.528068c-0.135444,-0.121514 -0.193857,-0.345043 -0.213212,-0.548326l-1.84302,-13.624449c-0.019302,-0.121894 -0.077737,-0.223541 -0.174882,-0.223541l-0.717785,0c-0.097145,0 -0.135813,0.081365 -0.155168,0.183048l-1.765621,13.644684c-0.019302,0.183036 -0.038288,0.385928 -0.155168,0.507821l-0.543262,0.568584c-0.058013,0.060716 -0.135444,0.141749 -0.135444,0.202891c0,0.061166 0.038288,0.121894 0.116089,0.121894l2.231125,0c0.097145,0 0.136193,-0.060716 0.136193,-0.121894c0,-0.061154 -0.116848,-0.142152 -0.194237,-0.243787"
           stroke-width="0.352778"
           fill-rule="nonzero"
           fill="#939598" />
        <path
           stroke="null"
           id="path444531"
           d="m156.663659,-49.956628c-0.776199,-1.299543 -1.183659,-2.456947 -1.183659,-3.309432c0,-0.609469 0.077421,-1.096261 0.485228,-1.096261c0.36838,0 0.640386,0.36529 0.892298,1.014872c0.329681,0.873111 0.465494,1.482592 0.581962,2.111915c0.019724,0.101671 0.058435,0.182645 0.116468,0.182645c0.077421,0 0.116468,-0.081033 0.116468,-0.162398l0,-3.817265c0,-0.101671 -0.039027,-0.203283 -0.077737,-0.203283c-0.058013,0 -0.096723,0.081033 -0.135444,0.121894l-0.562987,0.5277c-0.329681,-0.405806 -0.678717,-0.649594 -1.14459,-0.649594c-0.69843,0 -1.47426,0.852877 -1.47426,2.172666c0,1.238425 0.407449,2.497855 1.10588,3.715618c0.620672,1.055756 1.241703,2.396207 1.241703,3.654867c0,0.528459 -0.194237,0.873111 -0.621031,0.873111c-0.717785,0 -1.163934,-1.481809 -1.474271,-3.126775c-0.019724,-0.101671 -0.019724,-0.182645 -0.116838,-0.182645c-0.058013,0 -0.077421,0.081021 -0.077421,0.14214l0,3.898263c0,0.081365 0.019302,0.142532 0.058013,0.142532c0.077737,0 0.136193,-0.061154 0.194237,-0.101671l0.504204,-0.547947c0.29135,0.385548 0.621031,0.649582 1.163934,0.649582c0.815268,0 1.668866,-0.771855 1.668866,-2.030514c0,-1.319814 -0.523918,-2.741251 -1.261048,-3.980055"
           stroke-width="0.352778"
           fill-rule="nonzero"
           fill="#939598" />
        <path
           stroke="null"
           id="path444535"
           d="m163.240101,-44.331833c0.232937,0.162398 0.562987,0.385536 1.086535,0.385536c0.718155,0 1.784976,-0.64957 1.784976,-2.802002c0,-1.604082 -0.155168,-2.274302 -1.513339,-5.279195c-1.435571,-3.187929 -1.687852,-4.182946 -1.687852,-5.177939c0,-0.5277 0.039027,-0.954132 0.523548,-0.954132c0.892667,0 1.824034,2.558606 2.13437,4.202801c0.019724,0.081365 0.058013,0.14214 0.116468,0.14214c0.077421,0 0.116468,-0.040517 0.116468,-0.10122l0,-5.035811c0,-0.121894 -0.039027,-0.22315 -0.135813,-0.22315c-0.116468,0 -0.232567,0.101232 -0.40746,0.263654c-0.174513,0.183024 -0.36838,0.324797 -0.446149,0.324797c-0.077737,0 -0.194237,-0.060716 -0.29135,-0.121514c-0.290981,-0.243787 -0.717416,-0.466937 -1.086535,-0.466937c-0.989422,0 -1.784596,0.609077 -1.784596,2.537956c0,1.4822 0.388094,3.025531 1.43556,5.340349c1.106259,2.436321 1.687852,3.918912 1.687852,5.279207c0,0.629336 -0.193868,1.055756 -0.562617,1.055756c-1.144579,0 -1.745896,-2.578449 -2.094932,-4.202801c-0.019724,-0.061154 -0.058435,-0.14214 -0.116838,-0.14214c-0.077421,0 -0.097145,0.081033 -0.097145,0.14214l0,5.116417c0,0.061154 0.019724,0.101671 0.097145,0.101671c0.077737,0 0.155537,-0.081353 0.232937,-0.14214c0.388105,-0.30455 0.543273,-0.446299 0.621041,-0.446299c0.058013,0 0.174513,0.060716 0.387725,0.202903"
           stroke-width="0.352778"
           fill-rule="nonzero"
           fill="#939598" />
        <path
           stroke="null"
           id="path444539"
           d="m174.474032,-44.027567c0,-0.040505 -0.03871,-0.101671 -0.097145,-0.141749l-0.601317,-0.710724c-0.019302,-0.040849 -0.019302,-0.101671 -0.019302,-0.182645l0,-7.533262c0,-1.096652 0.504573,-1.766492 0.970067,-1.766492c0.446149,0 0.659741,0.405806 0.659741,1.17727l0,8.122484c0,0.081033 0,0.141761 -0.03871,0.182645l-0.601686,0.710724c-0.03871,0.040066 -0.077737,0.10122 -0.077737,0.141749c0,0.061154 0.039027,0.081365 0.116468,0.081365l2.50312,0l0.058013,0l2.502751,0c0.058435,0 0.116468,-0.020211 0.116468,-0.081365c0,-0.040517 -0.039027,-0.101671 -0.097145,-0.141749l-0.601317,-0.710724c-0.019302,-0.040849 -0.019302,-0.101671 -0.019302,-0.182645l0,-7.533274c0,-1.09664 0.504573,-1.76648 0.970067,-1.76648c0.446149,0 0.659741,0.405794 0.659741,1.17727l0,8.122484c0,0.081033 0,0.141749 -0.03871,0.182645l-0.601686,0.710724c-0.03871,0.040066 -0.077737,0.10122 -0.077737,0.141749c0,0.061154 0.039027,0.081353 0.116468,0.081353l2.561164,0c0.058013,0 0.116099,-0.020199 0.116099,-0.081353c0,-0.040517 -0.038288,-0.101671 -0.077421,-0.141749l-0.601317,-0.710724c-0.039027,-0.040849 -0.039027,-0.101671 -0.039027,-0.182645l0,-8.101847c0,-1.360686 -0.640006,-2.071019 -1.610453,-2.071019c-0.659361,0 -0.989042,0.324785 -1.338078,0.710333l-0.039027,0l0,-0.588831c0,-0.081033 -0.019724,-0.121502 -0.097145,-0.121502l-1.862375,0c-0.058435,0 -0.116468,0.019879 -0.116468,0.081033c0,0.040517 0.039027,0.10122 0.077737,0.162778l0.581972,0.568193c0.03871,0.040517 0.058013,0.081365 0.058013,0.16279l0,9.198107c0,0.081021 0,0.141749 -0.03871,0.182645l-0.53359,0.630498l-0.53359,-0.630498c-0.03871,-0.040849 -0.03871,-0.101671 -0.03871,-0.182645l0,-8.101847c0,-1.360698 -0.640386,-2.071019 -1.610832,-2.071019c-0.659361,0 -0.989042,0.324785 -1.338078,0.710321l-0.039027,0l0,-0.588831c0,-0.081021 -0.019302,-0.12149 -0.096723,-0.12149l-1.862797,0c-0.058435,0 -0.116468,0.019867 -0.116468,0.081021c0,0.040517 0.039132,0.101232 0.077737,0.16279l0.581962,0.568193c0.03871,0.040517 0.058013,0.081365 0.058013,0.16279l0,9.198095c0,0.081033 0,0.141761 -0.03871,0.182645l-0.543631,0.642181l-0.543273,-0.642181c-0.018986,-0.040837 -0.018986,-0.101671 -0.018986,-0.182645l0,-10.051363c0,-0.081021 -0.019302,-0.12149 -0.097145,-0.12149l-1.862734,0c-0.058013,0 -0.116099,0.019867 -0.116099,0.081021c0,0.040517 0.03871,0.101232 0.096723,0.16279l0.562617,0.568193c0.039027,0.040517 0.058435,0.081353 0.058435,0.162778l0,7.817163c0,0.995005 -0.407449,1.62434 -0.872953,1.62434c-0.504563,0 -0.756854,-0.406174 -0.756854,-1.177662l0,-9.117098c0,-0.081033 -0.03871,-0.121502 -0.096723,-0.121502l-1.862734,0c-0.058013,0 -0.116468,0.019879 -0.116468,0.081033c0,0.040517 0.039027,0.101232 0.077737,0.162778l0.581962,0.568205c0.03871,0.040505 0.058013,0.081353 0.058013,0.162778l0,8.243595c0,1.380944 0.523928,2.071019 1.649532,2.071019c0.620662,0 0.969697,-0.365278 1.299747,-0.771464l0.03871,0l0,0.690075c0,0.040517 0.058435,0.081353 0.135813,0.081353l1.765621,0l0.03871,0l2.522475,0c0.058013,0 0.116099,-0.020199 0.116099,-0.081353"
           stroke-width="0.352778"
           fill-rule="nonzero"
           fill="#939598" />
        <path
           stroke="null"
           id="path444543"
           d="m185.88237,-51.337134l0,5.3197c0,0.568584 -0.349036,1.197908 -0.776199,1.197908c-0.426435,0 -0.640386,-0.466925 -0.640386,-2.781352c0,-2.071422 0.310695,-2.782135 1.377885,-3.736256l0.0387,0zm-0.388105,-0.568584c-2.134001,1.786739 -2.464051,2.395816 -2.464051,4.67013c0,2.781744 0.931367,3.289577 1.687852,3.289577c0.523918,0 1.028491,-0.406186 1.338816,-0.771867c0.232937,0.365681 0.543273,0.771867 1.14459,0.771867c0.485218,0 0.931367,-0.60948 1.009136,-1.198299c0,-0.060716 -0.019724,-0.101232 -0.058435,-0.101232c-0.03871,0 -0.058435,0.040517 -0.096723,0.081353c-0.155537,0.243408 -0.36875,0.344652 -0.562987,0.344652c-0.174513,0 -0.252281,-0.243396 -0.252281,-0.50743l0,-7.370484c0,-2.091657 -1.221989,-2.538348 -1.920789,-2.538348c-1.086166,0 -2.192056,1.421449 -2.192056,1.665236c0,0.060716 0.019302,0.10122 0.058013,0.10122c0.058435,0 0.116468,-0.020199 0.155537,-0.060716c0.349025,-0.36529 1.163934,-0.832606 1.726552,-0.832606c0.621031,0 0.814899,0.223529 0.814899,1.116899c0,0.832227 0,1.015263 -0.388105,1.340048"
           stroke-width="0.352778"
           fill-rule="nonzero"
           fill="#939598" />
        <path
           stroke="null"
           id="path444547"
           d="m188.46271,-58.362575c0.058013,0.040517 0.077421,0.081033 0.077421,0.162398l0,13.137254c0,0.081021 0,0.142152 -0.03871,0.182645l-0.601317,0.710724c-0.058435,0.040517 -0.077737,0.101671 -0.077737,0.14214c0,0.061154 0.039027,0.081365 0.116468,0.081365l2.561175,0c0.058013,0 0.116089,-0.020211 0.116089,-0.081365c0,-0.040517 -0.03871,-0.101671 -0.097145,-0.14214l-0.601317,-0.710724c-0.019302,-0.040505 -0.019302,-0.101671 -0.019302,-0.182645l0,-7.532871c0,-1.097044 0.504563,-1.766872 0.970067,-1.766872c0.446149,0 0.659731,0.405783 0.659731,1.17765l0,8.122093c0,0.081021 0,0.142152 -0.03871,0.182645l-0.601307,0.710724c-0.039132,0.040517 -0.077737,0.101671 -0.077737,0.14214c0,0.061154 0.03871,0.081365 0.116099,0.081365l2.561175,0c0.058013,0 0.116099,-0.020211 0.116099,-0.081365c0,-0.040517 -0.038288,-0.101671 -0.077421,-0.14214l-0.601317,-0.710724c-0.03871,-0.040505 -0.03871,-0.101671 -0.03871,-0.182645l0,-8.101443c0,-1.360698 -0.640386,-2.071422 -1.610453,-2.071422c-0.659741,0 -0.989422,0.324797 -1.338447,0.710724l-0.039027,0l0,-4.527978c0,-0.081021 -0.03871,-0.121894 -0.116468,-0.121894l-1.84302,0c-0.077421,0 -0.116468,0.020199 -0.116468,0.081365c0,0.040505 0.019302,0.101671 0.077737,0.141749l0.562554,0.589246z"
           stroke-width="0.352778"
           fill-rule="nonzero"
           fill="#939598" />
        <path
           stroke="null"
           id="path444551"
           d="m143.693547,-39.424688c0.008438,0.018657 0.018248,0.034989 0.027108,0.049448c0.008438,0.013581 0.012974,0.032677 0.012974,0.056078c0,0.051784 -0.047992,0.1009 -0.144378,0.147999c-0.096723,0.047135 -0.208371,0.089193 -0.333773,0.126946c-0.125771,0.038192 -0.251912,0.067014 -0.376935,0.088422c-0.126141,0.021421 -0.218423,0.031906 -0.276847,0.031906c-0.134705,0 -0.276467,-0.016783 -0.424568,-0.04946c-0.14847,-0.032677 -0.284283,-0.087201 -0.407449,-0.162778c-0.123535,-0.074735 -0.224752,-0.174473 -0.303259,-0.299083c-0.078897,-0.124622 -0.118335,-0.276511 -0.118335,-0.455254c0,-0.178363 0.039449,-0.330253 0.118335,-0.454875c0.078475,-0.125001 0.179723,-0.224312 0.303259,-0.299865c0.123166,-0.074735 0.258979,-0.128892 0.407449,-0.162387c0.148101,-0.033115 0.289863,-0.049448 0.424568,-0.049448c0.144009,0 0.28056,0.011031 0.411173,0.031894c0.130233,0.021421 0.245963,0.047147 0.347169,0.077937c0.100837,0.030364 0.181959,0.065021 0.242609,0.102003c0.060333,0.037753 0.090816,0.075506 0.090816,0.112939c0,0.023745 -0.001055,0.044051 -0.003164,0.060395c-0.00211,0.016332 -0.005274,0.031562 -0.009493,0.045142l0.0674,0.04946l0.606148,-1.163642l-0.074467,-0.02097c-0.026791,0.037421 -0.060333,0.056078 -0.10052,0.056078c-0.036073,0 -0.090394,-0.012916 -0.162235,-0.038524c-0.07183,-0.025726 -0.172656,-0.057632 -0.303259,-0.095053c-0.134705,-0.037753 -0.299546,-0.072078 -0.49489,-0.102003c-0.195735,-0.030791 -0.427922,-0.046364 -0.697692,-0.046364c-0.2694,0 -0.537313,0.040078 -0.802252,0.119569c-0.265308,0.08025 -0.503086,0.199001 -0.714431,0.356714c-0.210987,0.157737 -0.382156,0.354781 -0.512389,0.592342c-0.129864,0.237549 -0.194986,0.513669 -0.194986,0.828728c0,0.315047 0.06508,0.591155 0.194986,0.828716c0.130233,0.237549 0.301402,0.434996 0.512389,0.59233c0.211345,0.157725 0.449123,0.272989 0.714431,0.346206c0.264939,0.07241 0.532852,0.10906 0.802252,0.10906c0.251163,0 0.47852,-0.017542 0.680942,-0.053314c0.202053,-0.034657 0.378053,-0.074735 0.529128,-0.119166c0.150327,-0.044822 0.272754,-0.087213 0.366893,-0.12735c0.094191,-0.039746 0.157394,-0.059945 0.189026,-0.059945c0.021939,0 0.041347,0.004424 0.056958,0.011042c0.015611,0.006618 0.027952,0.02186 0.037234,0.045925l0.080796,-0.049899l-0.693969,-1.107564l-0.074752,0.049661z"
           stroke-width="0.352778"
           fill-rule="nonzero"
           fill="#939598" />
        <path
           stroke="null"
           id="path444555"
           d="m148.080622,-41.660525c0.085542,0.008836 0.138418,0.024172 0.158512,0.045593c0.020041,0.021089 0.030483,0.047906 0.030483,0.081021l0,1.121584l-1.752225,0l0,-1.121584c0,-0.033115 0.010548,-0.059945 0.030483,-0.081021c0.020146,-0.021421 0.072569,-0.036211 0.158512,-0.045593l0,-0.084888l-1.389055,0l0,0.084888c0.085964,0.008836 0.138429,0.024172 0.158522,0.045593c0.020463,0.021089 0.030483,0.047906 0.030483,0.081021l0,3.28724c0,0.033115 -0.010548,0.059945 -0.030483,0.081033c-0.020041,0.021077 -0.072569,0.03665 -0.158522,0.045581l0,0.0849l1.389055,0l0,-0.0849c-0.085964,-0.008824 -0.138418,-0.024504 -0.158512,-0.045581c-0.020463,-0.020982 -0.030483,-0.047918 -0.030483,-0.081033l0,-1.304999l1.752225,0l0,1.304999c0,0.033115 -0.010548,0.059945 -0.030483,0.081033c-0.020041,0.021077 -0.072885,0.03665 -0.158512,0.045581l0,0.0849l1.388306,0l0,-0.0849c-0.084804,-0.008824 -0.137669,-0.024504 -0.157763,-0.045581c-0.020463,-0.020982 -0.030483,-0.047918 -0.030483,-0.081033l0,-3.28724c0,-0.033115 0.010548,-0.059945 0.030483,-0.081021c0.020146,-0.021421 0.072885,-0.036211 0.157763,-0.045593l0,-0.084888l-1.388306,0l0,0.084888z"
           stroke-width="0.352778"
           fill-rule="nonzero"
           fill="#939598" />
        <path
           stroke="null"
           id="path444559"
           d="m150.635542,-41.660525c0.085226,0.008836 0.138049,0.024172 0.158512,0.045593c0.019724,0.021089 0.029745,0.047906 0.029745,0.081021l0,3.28724c0,0.033115 -0.010548,0.059945 -0.029745,0.081033c-0.020463,0.021077 -0.073307,0.03665 -0.158512,0.045581l0,0.0849l1.387937,0l0,-0.0849c-0.085542,-0.008824 -0.138418,-0.024504 -0.158143,-0.045581c-0.020463,-0.020982 -0.030483,-0.047918 -0.030483,-0.081033l0,-3.28724c0,-0.033115 0.010548,-0.059945 0.030483,-0.081021c0.019724,-0.021421 0.072569,-0.036211 0.158143,-0.045593l0,-0.084888l-1.387937,0l0,0.084888z"
           stroke-width="0.352778"
           fill-rule="nonzero"
           fill="#939598" />
        <path
           stroke="null"
           id="path444563"
           d="m156.424215,-39.424688c0.008438,0.018657 0.018248,0.034989 0.027213,0.049448c0.008438,0.013581 0.012974,0.032677 0.012974,0.056078c0,0.051784 -0.047992,0.1009 -0.144378,0.147999c-0.096723,0.047135 -0.208371,0.089193 -0.334142,0.126946c-0.125402,0.038192 -0.251543,0.067014 -0.376565,0.088422c-0.126141,0.021421 -0.218423,0.031906 -0.276847,0.031906c-0.134705,0 -0.276467,-0.016783 -0.424568,-0.04946c-0.14847,-0.032677 -0.284283,-0.087201 -0.407818,-0.162778c-0.123546,-0.074735 -0.224382,-0.174473 -0.302889,-0.299083c-0.078897,-0.124622 -0.118335,-0.276511 -0.118335,-0.455254c0,-0.178363 0.039449,-0.330253 0.118335,-0.454875c0.078475,-0.125001 0.179344,-0.224312 0.302889,-0.299865c0.123535,-0.074735 0.259348,-0.128892 0.407818,-0.162387c0.148101,-0.033115 0.289863,-0.049448 0.424568,-0.049448c0.144009,0 0.28056,0.011031 0.411173,0.031894c0.130233,0.021421 0.245963,0.047147 0.3468,0.077937c0.101258,0.030364 0.182329,0.065021 0.242978,0.102003c0.060333,0.037753 0.090816,0.075506 0.090816,0.112939c0,0.023745 -0.001055,0.044051 -0.003164,0.060395c-0.00211,0.016332 -0.005274,0.031562 -0.010548,0.045142l0.067717,0.04946l0.606148,-1.163642l-0.074467,-0.02097c-0.026791,0.037421 -0.060333,0.056078 -0.100415,0.056078c-0.036073,0 -0.090394,-0.012916 -0.162235,-0.038524c-0.07183,-0.025726 -0.172656,-0.057632 -0.303259,-0.095053c-0.134705,-0.037753 -0.299546,-0.072078 -0.49489,-0.102003c-0.195735,-0.030791 -0.427922,-0.046364 -0.697692,-0.046364c-0.2694,0 -0.537313,0.040078 -0.802252,0.119569c-0.265308,0.08025 -0.503086,0.199001 -0.714431,0.356714c-0.210987,0.157737 -0.382156,0.354781 -0.512389,0.592342c-0.129864,0.237549 -0.194986,0.513669 -0.194986,0.828728c0,0.315047 0.06508,0.591155 0.194986,0.828716c0.130233,0.237549 0.301402,0.434996 0.512389,0.59233c0.211345,0.157725 0.449123,0.272989 0.714431,0.346206c0.264939,0.07241 0.532852,0.10906 0.802252,0.10906c0.251163,0 0.47852,-0.017542 0.680942,-0.053314c0.202053,-0.034657 0.378053,-0.074735 0.529128,-0.119166c0.150327,-0.044822 0.272754,-0.087213 0.366893,-0.12735c0.094086,-0.039746 0.157394,-0.059945 0.188657,-0.059945c0.022361,0 0.041664,0.004424 0.057274,0.011042c0.015611,0.006618 0.027952,0.02186 0.037234,0.045925l0.080796,-0.049899l-0.694348,-1.107564l-0.073792,0.049661z"
           stroke-width="0.352778"
           fill-rule="nonzero"
           fill="#939598" />
        <path
           stroke="null"
           id="path444567"
           d="m159.234211,-39.404169l0.59983,-1.678473l0.653782,1.678473l-1.253611,0zm2.669078,1.072503c-0.07183,-0.178351 -0.151814,-0.380863 -0.239624,-0.606741c-0.087441,-0.225486 -0.178236,-0.457199 -0.272754,-0.694357c-0.094191,-0.237561 -0.184934,-0.470056 -0.272754,-0.69865c-0.087441,-0.227823 -0.16521,-0.43228 -0.232557,-0.613371c-0.066978,-0.181079 -0.122428,-0.327904 -0.165589,-0.440831c-0.042402,-0.112951 -0.063603,-0.17369 -0.063603,-0.183428c0,-0.037421 0.011497,-0.061487 0.033858,-0.070548c0.022678,-0.009928 0.051368,-0.016332 0.087441,-0.02097l0,-0.084888l-1.758923,0l0,0.084888c0.031221,0.004412 0.06181,0.011256 0.091133,0.02097c0.029006,0.008836 0.04314,0.025287 0.04314,0.04946c0,0.004412 -0.016771,0.053765 -0.049891,0.147976c-0.033858,0.094282 -0.077737,0.216531 -0.13172,0.366855c-0.053583,0.150716 -0.116099,0.320515 -0.185303,0.511332c-0.069932,0.190437 -0.140654,0.385548 -0.211725,0.58532c-0.072147,0.199784 -0.144378,0.396069 -0.216197,0.588831c-0.07183,0.192774 -0.136931,0.368018 -0.195355,0.525743c-0.058435,0.157322 -0.105678,0.288183 -0.141772,0.391775c-0.035757,0.102774 -0.058013,0.16668 -0.066978,0.190034c-0.0231,0.056529 -0.045355,0.095385 -0.0674,0.11645c-0.0231,0.02097 -0.058751,0.03665 -0.107904,0.045593l0,0.084888l1.192582,0l0,-0.084888c-0.049469,0 -0.081851,-0.005527 -0.097883,-0.017554c-0.015611,-0.011268 -0.023416,-0.02881 -0.023416,-0.052994c0,-0.008824 0.004219,-0.024172 0.010548,-0.045593c0.007383,-0.021409 0.018248,-0.055746 0.033858,-0.102442c0.015611,-0.047135 0.037234,-0.110602 0.064025,-0.190437c0.027213,-0.08025 0.063287,-0.183428 0.107534,-0.310766l1.597437,0c0.005274,0.024172 0.019302,0.068544 0.043879,0.134348c0.024893,0.066243 0.050946,0.135534 0.077421,0.207968c0.026791,0.073632 0.052106,0.139033 0.074045,0.197839c0.0231,0.058842 0.033858,0.090296 0.033858,0.095373c0,0.05144 -0.042824,0.079812 -0.128008,0.084117l0,0.0849l1.327657,0l0,-0.0849c-0.040187,0 -0.073307,-0.013581 -0.097883,-0.042497c-0.024154,-0.028039 -0.054743,-0.084117 -0.090816,-0.169017"
           stroke-width="0.352778"
           fill-rule="nonzero"
           fill="#939598" />
        <path
           stroke="null"
           id="path444571"
           d="m166.910257,-38.642004c-0.008438,-0.023401 -0.013079,-0.05144 -0.013079,-0.084888l0,-1.170652c0,-0.075174 0.036073,-0.115275 0.107914,-0.119937l0,-0.084117l-1.988136,0c-0.058751,0 -0.092293,-0.042391 -0.101258,-0.12735l-0.081112,0l0,0.987616l0.081112,0c0.004219,-0.042058 0.013712,-0.076384 0.026791,-0.102442c0.013818,-0.025726 0.03755,-0.038963 0.074467,-0.038963l0.86923,0l0,0.465763c-0.139167,0.042058 -0.284663,0.075174 -0.434989,0.098575c-0.150327,0.023734 -0.319639,0.03544 -0.508666,0.03544c-0.14847,0 -0.298797,-0.020982 -0.451729,-0.063479c-0.152932,-0.042391 -0.290612,-0.108289 -0.413778,-0.197839c-0.124284,-0.089193 -0.226239,-0.202891 -0.306982,-0.341533c-0.081112,-0.139033 -0.121679,-0.302202 -0.121679,-0.490291c0,-0.192786 0.033858,-0.358671 0.101258,-0.497313c0.0674,-0.139033 0.158881,-0.255091 0.272744,-0.349325c0.114612,-0.093831 0.245214,-0.163181 0.391079,-0.208359c0.145865,-0.044371 0.300284,-0.066563 0.461781,-0.066563c0.139167,0 0.282047,0.011256 0.427912,0.03544c0.146234,0.023401 0.277216,0.05144 0.394054,0.084449c0.117217,0.032665 0.213592,0.069315 0.290612,0.109392c0.075522,0.039746 0.113863,0.075945 0.113863,0.109072c0,0.023401 -0.004219,0.049116 -0.013396,0.077487l0.081112,0.04946l0.437964,-0.931146l-0.080796,-0.028039c-0.027213,0.037421 -0.058435,0.056529 -0.094508,0.056529c-0.026791,0 -0.087757,-0.022192 -0.18158,-0.067346c-0.09493,-0.044371 -0.19834,-0.082907 -0.310336,-0.116058c-0.117217,-0.032665 -0.218054,-0.060383 -0.303638,-0.081353c-0.084804,-0.02097 -0.168184,-0.038524 -0.248938,-0.052211c-0.081112,-0.014458 -0.164091,-0.024184 -0.249676,-0.029261c-0.084804,-0.004412 -0.184195,-0.006618 -0.296192,-0.006618c-0.283545,0 -0.556289,0.038524 -0.819371,0.116829c-0.262702,0.077167 -0.49489,0.195111 -0.697312,0.352053c-0.202053,0.158105 -0.365037,0.355172 -0.488572,0.59233c-0.123535,0.238331 -0.185303,0.516788 -0.185303,0.836117c0,0.320124 0.06181,0.598177 0.185303,0.835738c0.123535,0.23794 0.286519,0.434213 0.488572,0.589222c0.202422,0.155389 0.43461,0.26949 0.697312,0.342315c0.263082,0.072849 0.535826,0.10906 0.819371,0.10906c0.835361,0 1.558726,-0.169408 2.169726,-0.507821l0,-0.084556l-0.033542,0c-0.036073,0 -0.058751,-0.011268 -0.067717,-0.03544"
           stroke-width="0.352778"
           fill-rule="nonzero"
           fill="#939598" />
        <path
           stroke="null"
           id="path444575"
           d="m170.681059,-39.444092c-0.06065,0.129686 -0.141403,0.237561 -0.24224,0.325188c-0.101575,0.087652 -0.218423,0.154606 -0.350513,0.202108c-0.132469,0.047147 -0.273503,0.070097 -0.421594,0.070097c-0.148101,0 -0.288755,-0.022951 -0.420845,-0.070097c-0.132849,-0.047467 -0.249687,-0.114493 -0.350892,-0.202108c-0.100415,-0.087652 -0.18159,-0.195502 -0.242609,-0.325188c-0.06065,-0.130066 -0.090816,-0.277662 -0.090816,-0.442788c0,-0.165126 0.030167,-0.312331 0.090816,-0.442006c0.061072,-0.129686 0.142142,-0.238723 0.242609,-0.325959c0.101258,-0.086881 0.218043,-0.154226 0.350892,-0.201338c0.13209,-0.047135 0.272744,-0.071307 0.420845,-0.071307c0.148091,0 0.289125,0.024172 0.421594,0.071307c0.13209,0.047135 0.248927,0.114493 0.350513,0.201338c0.100837,0.087201 0.18159,0.196273 0.24224,0.325959c0.06065,0.129674 0.091133,0.276879 0.091133,0.442006c0,0.165126 -0.030483,0.312723 -0.091133,0.442788m0.465124,-1.856824c-0.191262,-0.160062 -0.413398,-0.281173 -0.667177,-0.363356c-0.254148,-0.082124 -0.525036,-0.123839 -0.812293,-0.123839c-0.287268,0 -0.558156,0.04162 -0.811555,0.123839c-0.254517,0.082136 -0.476295,0.203295 -0.667546,0.363356c-0.191262,0.159659 -0.342707,0.357106 -0.455083,0.59233c-0.112376,0.235224 -0.168564,0.507821 -0.168564,0.818207c0,0.310374 0.05622,0.582983 0.168564,0.818207c0.112376,0.235212 0.26382,0.432659 0.455083,0.59233c0.191252,0.160062 0.413029,0.277282 0.667546,0.352824c0.253399,0.075174 0.524287,0.112939 0.811555,0.112939c0.287258,0 0.558145,-0.037753 0.812293,-0.112939c0.253779,-0.075506 0.475915,-0.192762 0.667177,-0.352824c0.191262,-0.15967 0.342338,-0.357106 0.455083,-0.59233c0.112007,-0.235224 0.168184,-0.507833 0.168184,-0.818207c0,-0.310386 -0.05622,-0.582983 -0.168184,-0.818207c-0.112745,-0.235224 -0.26382,-0.432671 -0.455083,-0.59233"
           stroke-width="0.352778"
           fill-rule="nonzero"
           fill="#939598" />
        <path
           stroke="null"
           d="m118.556164,-39.561313l20.573115,0l0,-0.658145l-20.573115,0l0,0.658145z"
           id="path444577"
           stroke-width="0.352778"
           fill-rule="nonzero"
           fill="#939598" />
        <path
           stroke="null"
           d="m173.131155,-39.561313l20.572746,0l0,-0.658145l-20.572746,0l0,0.658145z"
           id="path444579"
           stroke-width="0.352778"
           fill-rule="nonzero"
           fill="#939598" />
        <path
           stroke="null"
           id="path444583"
           d="m136.925578,-58.786635l-1.158724,1.21271l1.158724,1.21309l1.158724,-1.21309l-1.158724,-1.21271z"
           stroke-width="0.352778"
           fill-rule="nonzero"
           fill="#939598" />
        <path
           stroke="null"
           id="path444587"
           d="m140.558996,-57.573806l-1.137881,-1.190886l-1.137523,1.190886l1.137523,1.190898l1.137881,-1.190898z"
           stroke-width="0.352778"
           fill-rule="nonzero"
           fill="#939598" />
        <path
           stroke="null"
           id="path444591"
           d="m159.806174,-49.192198l1.137881,-1.190886l-1.137881,-1.190519l-1.137881,1.190519l1.137881,1.190886z"
           stroke-width="0.352778"
           fill-rule="nonzero"
           fill="#939598" />
      </g>
      <g
         stroke="null"
         id="layer14">
        <g
           stroke="null"
           id="layer15">
          <g
             stroke="null"
             id="g455867">
            <path
               stroke="null"
               d="m2.232326,0.449611c0.134157,0 0.193952,0.058284 0.208824,0.141512l0.984296,3.601564l0.029745,0l0.909913,-3.601564c0.014872,-0.083239 0.059785,-0.141512 0.164197,-0.141512l1.864168,0c0.0595,0 0.08954,0.024837 0.08954,0.04162c0,0.033341 -0.059785,0.058284 -0.104412,0.083121l-0.373,0.241226c-0.08954,0.066563 -0.119285,0.133055 -0.119285,0.232911l0,5.040697c0,0.099904 0.029745,0.166384 0.119285,0.232911l0.373,0.241048c0.044628,0.025062 0.104412,0.049899 0.104412,0.083239c0,0.016558 -0.03004,0.041513 -0.08954,0.041513l-2.087855,0c-0.074668,0 -0.08954,-0.024848 -0.08954,-0.041513c0,-0.033341 0.0595,-0.058177 0.104412,-0.0914l0.313226,-0.224786c0.089529,-0.066563 0.104402,-0.141179 0.104402,-0.241048l0,-4.025921l-0.030029,0l-1.133325,4.55827c-0.014872,0.041513 -0.044912,0.066349 -0.119569,0.066349l-0.328099,0c-0.044617,0 -0.0595,-0.033234 -0.074362,-0.074854l-1.207982,-4.549813l-0.029755,0l0,4.025921c0,0.099904 0.014588,0.174532 0.104127,0.241059l0.313216,0.224775c0.044912,0.033222 0.104412,0.058071 0.104412,0.0914c0,0.016558 -0.029755,0.041513 -0.08954,0.041513l-1.834413,0c-0.0595,0 -0.08954,-0.024837 -0.08954,-0.041513c0,-0.033329 0.074657,-0.058177 0.104412,-0.083227l0.373,-0.241059c0.08954,-0.066563 0.134157,-0.133043 0.134157,-0.232911l0,-5.040697c0,-0.099904 -0.044617,-0.166396 -0.134157,-0.232911l-0.373,-0.241214c-0.029755,-0.024837 -0.104412,-0.049792 -0.104412,-0.083133c0,-0.016771 0.03004,-0.041608 0.089529,-0.041608l1.819551,0.000036l-0.000011,0z"
               id="path444123"
               stroke-width="0.197967"
               fill-rule="nonzero"
               fill="#415464" />
            <path
               stroke="null"
               d="m8.750228,3.660325l-0.029745,0c-0.820383,0.390862 -1.058953,0.681998 -1.058953,1.530545c0,0.948095 0.163912,1.139363 0.492011,1.139363c0.328373,0 0.596687,-0.257795 0.596687,-0.490706l0,-2.179202zm1.043795,2.462047c0,0.108183 0.059785,0.207861 0.193931,0.207861c0.149325,0 0.313226,-0.041501 0.432511,-0.141179c0.030029,-0.016783 0.044912,-0.033341 0.074668,-0.033341c0.030029,0 0.044617,0.016558 0.044617,0.041513c-0.059489,0.241214 -0.402471,0.490872 -0.775482,0.490872c-0.462245,0 -0.700814,-0.166384 -0.879873,-0.316186c-0.238559,0.149802 -0.626452,0.316186 -1.028923,0.316186c-0.581804,0 -1.297796,-0.208015 -1.297796,-1.347544c0,-0.931668 0.253726,-1.18116 1.894208,-1.913092c0.298354,-0.133055 0.298354,-0.208039 0.298354,-0.548943c0,-0.365978 -0.14904,-0.457543 -0.626452,-0.457543c-0.4325,0 -1.058942,0.191446 -1.327541,0.341082c-0.029755,0.016558 -0.074372,0.024837 -0.119285,0.024837c-0.029745,0 -0.044617,-0.016558 -0.044617,-0.041513c0,-0.099904 0.850128,-0.682152 1.685384,-0.682152c0.536912,0 1.476296,0.182989 1.476296,1.039827l0,3.019316z"
               id="path444127"
               stroke-width="0.197967"
               fill-rule="nonzero"
               fill="#415464" />
            <path
               stroke="null"
               d="m13.164844,3.710176c0,0.033341 -0.029745,0.066575 -0.089529,0.066575c-0.044628,0 -0.074657,-0.033234 -0.089245,-0.074854c-0.089529,-0.257795 -0.194216,-0.507311 -0.447657,-0.865129c-0.193942,-0.26611 -0.402756,-0.415734 -0.685942,-0.415734c-0.313226,0 -0.373011,0.19957 -0.373011,0.449063c0,0.349384 0.313226,0.823497 0.909913,1.355704c0.566657,0.507465 0.969413,1.089749 0.969413,1.630401c0,0.515756 -0.656197,0.831788 -1.282639,0.831788c-0.417628,0 -0.671069,-0.108183 -0.89503,-0.266086l-0.387609,0.224442c-0.044902,0.016783 -0.089529,0.04162 -0.149314,0.04162c-0.029745,0 -0.044617,-0.024837 -0.044617,-0.058177l0,-1.59706c0,-0.024837 0.014872,-0.058071 0.059785,-0.058071c0.074372,0 0.074372,0.033234 0.089245,0.074842c0.238843,0.673707 0.581814,1.280874 1.133599,1.280874c0.328099,0 0.477423,-0.141345 0.477423,-0.357663c0,-0.515756 -0.477423,-1.064711 -0.954551,-1.497192c-0.536902,-0.499009 -0.850413,-1.014777 -0.850413,-1.522088c0,-0.540806 0.596697,-0.890013 1.13361,-0.890013c0.357843,0 0.626442,0.099904 0.880168,0.266098l0.432215,-0.21633c0.030029,-0.01657 0.059785,-0.049792 0.104697,-0.049792c0.029745,0 0.0595,0.041501 0.0595,0.083121l-0.000021,1.56366l0.000011,0z"
               id="path444131"
               stroke-width="0.197967"
               fill-rule="nonzero"
               fill="#415464" />
            <path
               stroke="null"
               d="m14.969544,2.063312c0.044628,0 0.074383,0.01657 0.074383,0.049792l0,4.433518c0,0.815207 -0.566678,1.239397 -1.312394,1.239397c-0.745737,0 -1.04407,-0.357663 -1.04407,-0.690454c0,-0.033222 0.030029,-0.058284 0.059785,-0.058284c0.044902,0 0.074668,0.025062 0.089529,0.049899c0.119274,0.208027 0.342971,0.332625 0.641314,0.332625c0.387873,0 0.52204,-0.141345 0.52204,-0.823343l0,-4.133925c0,-0.033341 -0.014883,-0.050112 -0.044912,-0.06667l-0.447373,-0.232757c-0.029745,-0.02505 -0.0595,-0.050112 -0.0595,-0.06667c0,-0.024837 0.044617,-0.033234 0.089529,-0.033234l1.431679,0.000107l-0.000011,0z"
               id="path444135"
               stroke-width="0.197967"
               fill-rule="nonzero"
               fill="#415464" />
            <path
               stroke="null"
               d="m15.923926,2.462619c0,-0.033341 -0.014872,-0.049899 -0.044912,-0.066682l-0.447383,-0.232745c-0.029745,-0.025062 -0.0595,-0.049899 -0.0595,-0.066682c0,-0.024837 0.044617,-0.033234 0.089529,-0.033234l1.431668,0c0.044617,0 0.074372,0.016783 0.074372,0.049899l0,4.117344c0,0.033222 0,0.058071 0.030029,0.074842l0.462255,0.291148c0.030019,0.016558 0.059785,0.04162 0.059785,0.058071c0,0.025169 -0.029745,0.033329 -0.089529,0.033329l-1.968581,0c-0.044912,0 -0.089529,-0.007721 -0.089529,-0.033329c0,-0.016451 0.029745,-0.041513 0.0595,-0.058071l0.46254,-0.291148c0.029745,-0.016783 0.029745,-0.04162 0.029745,-0.074842l0.000011,-3.767912l0,0.000012z"
               id="path444139"
               stroke-width="0.197967"
               fill-rule="nonzero"
               fill="#415464" />
            <path
               stroke="null"
               d="m19.980699,3.044795c0,-0.407597 -0.447383,-0.623761 -0.656187,-0.623761c-0.373011,0 -0.55207,0.174674 -0.55207,1.713356c0,2.00467 0.149314,2.195949 0.536902,2.195949c0.358139,0 0.671354,-0.257807 0.671354,-0.665416l0,-2.620128zm0,-2.195937c0,-0.033341 -0.014872,-0.049899 -0.059785,-0.066563l-0.4325,-0.241214c-0.044617,-0.016558 -0.074372,-0.04162 -0.074372,-0.058284c0,-0.025062 0.044617,-0.033341 0.104117,-0.033341l1.417081,0c0.0595,0 0.089245,0.016783 0.089245,0.049899l0,5.73114c0,0.033234 0,0.058071 0.015168,0.074628l0.462255,0.291302c0.044912,0.016451 0.074657,0.041501 0.074657,0.058059c0,0.025062 -0.044912,0.033341 -0.104402,0.033341l-1.387051,0c-0.059785,0 -0.104412,-0.016783 -0.104412,-0.033341l0,-0.282845l-0.029755,0c-0.253716,0.166384 -0.52203,0.316186 -0.999442,0.316186c-0.656187,0 -1.342424,-0.208027 -1.342424,-2.553612c0,-1.854855 0.745726,-2.071031 1.357296,-2.071031c0.4325,0 0.730854,0.133055 0.98457,0.290994l0.029745,0l0,-1.505317l0.000011,0z"
               id="path444143"
               stroke-width="0.197967"
               fill-rule="nonzero"
               fill="#415464" />
            <path
               stroke="null"
               d="m25.424375,4.783284c0.044617,0 0.074668,-0.025062 0.0595,-0.058284l-0.521745,-2.037999l-0.030029,0l-0.49199,2.046301c-0.014872,0.033341 0.014872,0.049899 0.044617,0.049899l0.939657,0.000083l-0.000011,0zm0.208824,0.515602c-0.014872,-0.041501 -0.059785,-0.074842 -0.134146,-0.074842l-1.103865,0c-0.044617,0 -0.074372,0.024837 -0.089529,0.058284l-0.223401,0.914921c-0.015168,0.058391 0.014588,0.108183 0.074372,0.14979l0.328099,0.19128c0.059785,0.04162 0.149314,0.074854 0.149314,0.099904c0,0.024837 -0.030029,0.049792 -0.104412,0.049792l-1.715424,0c-0.0595,0 -0.089255,-0.024837 -0.089255,-0.049792c0,-0.02505 0.0595,-0.058284 0.104412,-0.083227l0.417628,-0.232769c0.089519,-0.050112 0.104117,-0.133043 0.119285,-0.208027l1.357001,-5.589474c0.015168,-0.04162 0.044912,-0.07496 0.119569,-0.07496l0.551785,0c0.074372,0 0.119274,0.04162 0.134157,0.091411l1.416785,5.58135c0.014872,0.083121 0.059785,0.174674 0.164197,0.224608l0.4325,0.216164c0.044617,0.024837 0.089529,0.049899 0.089529,0.07496c0,0.024837 -0.030029,0.049792 -0.104402,0.049792l-2.147639,0c-0.074668,0 -0.104412,-0.024837 -0.104412,-0.049792c0,-0.025062 0.0595,-0.050112 0.104412,-0.07496l0.402471,-0.224454c0.059785,-0.033341 0.089529,-0.091518 0.074668,-0.166396l-0.223707,-0.873562l0.000011,0z"
               id="path444147"
               stroke-width="0.197967"
               fill-rule="nonzero"
               fill="#415464" />
            <path
               stroke="null"
               d="m30.286511,3.710176c0,0.033341 -0.029755,0.066575 -0.089245,0.066575c-0.044923,0 -0.074668,-0.033234 -0.089825,-0.074854c-0.089245,-0.257795 -0.193942,-0.507311 -0.447098,-0.865129c-0.193942,-0.26611 -0.40304,-0.415734 -0.686227,-0.415734c-0.313511,0 -0.373,0.19957 -0.373,0.449063c0,0.349384 0.313216,0.823497 0.909913,1.355704c0.566942,0.507465 0.969413,1.089749 0.969413,1.630401c0,0.515756 -0.656187,0.831788 -1.282924,0.831788c-0.417343,0 -0.670774,-0.108183 -0.894756,-0.266086l-0.387598,0.224442c-0.044617,0.016783 -0.089529,0.04162 -0.149029,0.04162c-0.030029,0 -0.044617,-0.024837 -0.044617,-0.058177l0,-1.59706c0,-0.024837 0.014588,-0.058071 0.0595,-0.058071c0.074372,0 0.074372,0.033234 0.089529,0.074842c0.238559,0.673707 0.581529,1.280874 1.133325,1.280874c0.328099,0 0.477413,-0.141345 0.477413,-0.357663c0,-0.515756 -0.477413,-1.064711 -0.95454,-1.497192c-0.536912,-0.499009 -0.850128,-1.014777 -0.850128,-1.522088c0,-0.540806 0.596402,-0.890013 1.133304,-0.890013c0.358128,0 0.626452,0.099904 0.879883,0.266098l0.432785,-0.21633c0.029745,-0.01657 0.0595,-0.049792 0.104117,-0.049792c0.030029,0 0.059785,0.041501 0.059785,0.083121l0.000011,1.56366l0.000011,0z"
               id="path444151"
               stroke-width="0.197967"
               fill-rule="nonzero"
               fill="#415464" />
            <path
               stroke="null"
               d="m36.535414,2.603928c0,0.024837 -0.029745,0.04162 -0.089245,0.04162c-0.045197,0 -0.074657,-0.025062 -0.089825,-0.058177c-0.238569,-0.673707 -0.95454,-1.721658 -1.640482,-1.721658c-0.372726,0 -0.402745,0.17452 -0.402745,0.39085c0,0.407431 0.193931,0.81504 1.297796,2.121119c1.043785,1.230774 1.16307,1.505329 1.16307,2.16243c0,0.881888 -0.820099,1.147986 -1.372168,1.147986c-0.402471,0 -0.656197,-0.091506 -0.835266,-0.158093c-0.163902,-0.058284 -0.253431,-0.083121 -0.298059,-0.083121c-0.059785,0 -0.179069,0.058071 -0.477423,0.182823c-0.0595,0.02505 -0.119285,0.058391 -0.179069,0.058391c-0.0595,0 -0.074372,-0.016771 -0.074372,-0.04162l0,-2.096069c0,-0.02505 0.014872,-0.058284 0.074372,-0.058284c0.044912,0 0.074668,0.033234 0.089825,0.058284c0.268314,0.665404 0.73058,1.721658 1.610748,1.721658c0.283176,0 0.432215,-0.174686 0.432215,-0.432493c0,-0.557234 -0.447088,-1.164567 -1.297522,-2.16243c-0.805226,-0.948415 -1.10357,-1.580633 -1.10357,-2.187658c0,-0.790145 0.611285,-1.039815 1.372168,-1.039815c0.283471,0 0.611285,0.0914 0.835256,0.19128c0.074372,0.025062 0.163912,0.049899 0.223697,0.049899c0.059785,0 0.208814,-0.058059 0.342971,-0.133055c0.134442,-0.066563 0.223686,-0.108183 0.313216,-0.108183c0.074657,0 0.104402,0.04162 0.104402,0.091411l0.000011,2.062906z"
               id="path444155"
               stroke-width="0.197967"
               fill-rule="nonzero"
               fill="#415464" />
            <path
               stroke="null"
               d="m40.726681,6.230602c0,0.033222 0,0.058059 0.014872,0.074842l0.462245,0.291148c0.044912,0.016451 0.074668,0.041608 0.074668,0.058059c0,0.025062 -0.044912,0.033341 -0.104412,0.033341l-1.387041,0c-0.0595,0 -0.104117,-0.016558 -0.104117,-0.033341l0,-0.282691l-0.030029,0c-0.253726,0.166396 -0.52204,0.316032 -0.999168,0.316032c-0.865,0 -1.268041,-0.282691 -1.268041,-0.848381l0,-3.376955c0,-0.033341 -0.014588,-0.050112 -0.044617,-0.06667l-0.447098,-0.232757c-0.030029,-0.02505 -0.059785,-0.050112 -0.059785,-0.06667c0,-0.024837 0.044617,-0.033234 0.089245,-0.033234l1.431953,0c0.044617,0 0.074668,0.016558 0.074668,0.049792l0,3.734927c0,0.315866 0.193657,0.482261 0.58154,0.482261c0.357843,0 0.671354,-0.257807 0.671354,-0.665404l0,-3.202269c0,-0.033329 -0.015168,-0.050112 -0.045197,-0.06667l-0.432215,-0.232769c-0.044912,-0.02505 -0.074668,-0.050112 -0.074668,-0.06667c0,-0.024837 0.044617,-0.033234 0.089245,-0.033234l1.431953,0c0.059785,0 0.074668,0.016558 0.074668,0.049792l-0.000021,4.11751l0,0.000012z"
               id="path444159"
               stroke-width="0.197967"
               fill-rule="nonzero"
               fill="#415464" />
            <path
               stroke="null"
               d="m42.650792,2.354329l0.029745,0c0.268599,-0.157939 0.52204,-0.290982 1.028913,-0.290982c0.746011,0 1.238011,0.290982 1.238011,0.848381l0,3.318873c0,0.033234 0,0.058071 0.030029,0.074854l0.462255,0.291148c0.029745,0.016439 0.0595,0.041608 0.0595,0.058059c0,0.025062 -0.044617,0.033341 -0.089245,0.033341l-1.968865,0c-0.0595,0 -0.089529,-0.007721 -0.089529,-0.033341c0,-0.016451 0.030029,-0.04162 0.059785,-0.058059l0.462255,-0.291148c0.030029,-0.016783 0.030029,-0.04162 0.030029,-0.074854l0,-3.32733c0,-0.31602 -0.164197,-0.482249 -0.507453,-0.482249c-0.357843,0 -0.745442,0.274388 -0.745442,0.723629l0,3.08595c0,0.033234 0,0.058071 0.014872,0.074854l0.462255,0.291148c0.044617,0.016439 0.074657,0.041608 0.074657,0.058059c0,0.025062 -0.044912,0.033341 -0.089529,0.033341l-1.968855,0c-0.0595,0 -0.089245,-0.007733 -0.089245,-0.033341c0,-0.016451 0.014872,-0.04162 0.059785,-0.058059l0.462255,-0.291148c0.029734,-0.016783 0.029734,-0.04162 0.029734,-0.074854l0,-3.767948c0,-0.033329 -0.014872,-0.050112 -0.044912,-0.06667l-0.447088,-0.232769c-0.030029,-0.02505 -0.059785,-0.050112 -0.059785,-0.06667c0,-0.024837 0.044606,-0.033234 0.089234,-0.033234l1.431963,0c0.0595,0 0.074668,0.016558 0.074668,0.049792l0.000011,0.241226l-0.000011,0z"
               id="path444163"
               stroke-width="0.197967"
               fill-rule="nonzero"
               fill="#415464" />
            <path
               stroke="null"
               d="m46.871667,2.354329l0.029745,0c0.268588,-0.157939 0.52203,-0.290982 1.028902,-0.290982c0.746022,0 1.238022,0.290982 1.238022,0.848381l0,3.318873c0,0.033234 0,0.058071 0.030029,0.074854l0.462245,0.291148c0.029745,0.016439 0.0595,0.041608 0.0595,0.058059c0,0.025062 -0.044617,0.033341 -0.089245,0.033341l-1.968855,0c-0.0595,0 -0.089529,-0.007721 -0.089529,-0.033341c0,-0.016451 0.030029,-0.04162 0.059785,-0.058059l0.462245,-0.291148c0.030029,-0.016783 0.030029,-0.04162 0.030029,-0.074854l0,-3.32733c0,-0.31602 -0.164197,-0.482249 -0.507442,-0.482249c-0.357854,0 -0.745442,0.274388 -0.745442,0.723629l0,3.08595c0,0.033234 0,0.058071 0.014862,0.074854l0.462266,0.291148c0.044617,0.016439 0.074668,0.041608 0.074668,0.058059c0,0.025062 -0.044912,0.033341 -0.089529,0.033341l-1.968865,0c-0.0595,0 -0.089245,-0.007733 -0.089245,-0.033341c0,-0.016451 0.014872,-0.04162 0.059785,-0.058059l0.462255,-0.291148c0.029745,-0.016783 0.029745,-0.04162 0.029745,-0.074854l0,-3.767948c0,-0.033329 -0.014872,-0.050112 -0.044912,-0.06667l-0.447098,-0.232769c-0.030029,-0.02505 -0.059785,-0.050112 -0.059785,-0.06667c0,-0.024837 0.044617,-0.033234 0.089245,-0.033234l1.431953,0c0.0595,0 0.074657,0.016558 0.074657,0.049792l0.000011,0.241226z"
               id="path444167"
               stroke-width="0.197967"
               fill-rule="nonzero"
               fill="#415464" />
            <path
               stroke="null"
               d="m51.972489,3.660325l-0.029745,0c-0.820383,0.390862 -1.059237,0.681998 -1.059237,1.530545c0,0.948095 0.164492,1.139363 0.492295,1.139363c0.328373,0 0.596697,-0.257795 0.596697,-0.490706l0,-2.179202l-0.000011,0zm1.043785,2.462047c0,0.108183 0.059785,0.207861 0.193942,0.207861c0.149314,0 0.313226,-0.041501 0.432785,-0.141179c0.02947,-0.016783 0.044617,-0.033341 0.074372,-0.033341c0.029745,0 0.044912,0.016558 0.044912,0.041513c-0.059785,0.241214 -0.402756,0.490872 -0.775756,0.490872c-0.462255,0 -0.700825,-0.166384 -0.879883,-0.316186c-0.238569,0.149802 -0.626442,0.316186 -1.029197,0.316186c-0.58154,0 -1.297511,-0.208015 -1.297511,-1.347544c0,-0.931668 0.253716,-1.18116 1.894208,-1.913092c0.298343,-0.133055 0.298343,-0.208039 0.298343,-0.548943c0,-0.365978 -0.149029,-0.457543 -0.626442,-0.457543c-0.432511,0 -1.058953,0.191446 -1.327266,0.341082c-0.030019,0.016558 -0.074668,0.024837 -0.119569,0.024837c-0.029734,0 -0.044606,-0.016558 -0.044606,-0.041513c0,-0.099904 0.850139,-0.682152 1.68511,-0.682152c0.537197,0 1.47658,0.182989 1.47658,1.039827l-0.000011,3.019316l-0.000011,0z"
               id="path444171"
               stroke-width="0.197967"
               fill-rule="nonzero"
               fill="#415464" />
            <path
               stroke="null"
               d="m55.059775,2.354329l0.029745,0c0.268599,-0.157939 0.52203,-0.290982 1.028913,-0.290982c0.746011,0 1.238011,0.290982 1.238011,0.848381l0,3.318873c0,0.033234 0,0.058071 0.030029,0.074854l0.462255,0.291148c0.029745,0.016439 0.0595,0.041608 0.0595,0.058059c0,0.025062 -0.044606,0.033341 -0.089234,0.033341l-1.968865,0c-0.0595,0 -0.089529,-0.007721 -0.089529,-0.033341c0,-0.016451 0.030029,-0.04162 0.059785,-0.058059l0.462255,-0.291148c0.030029,-0.016783 0.030029,-0.04162 0.030029,-0.074854l0,-3.32733c0,-0.31602 -0.164207,-0.482249 -0.507453,-0.482249c-0.357854,0 -0.745442,0.274388 -0.745442,0.723629l0,3.08595c0,0.033234 0,0.058071 0.014872,0.074854l0.462255,0.291148c0.044617,0.016439 0.074668,0.041608 0.074668,0.058059c0,0.025062 -0.044912,0.033341 -0.089529,0.033341l-1.968865,0c-0.0595,0 -0.089245,-0.007733 -0.089245,-0.033341c0,-0.016451 0.014872,-0.04162 0.059785,-0.058059l0.462255,-0.291148c0.029745,-0.016783 0.029745,-0.04162 0.029745,-0.074854l0,-5.381756c0,-0.033341 -0.014872,-0.049899 -0.0595,-0.066563l-0.432511,-0.241214c-0.044912,-0.016558 -0.059785,-0.041608 -0.059785,-0.058059c0,-0.025169 0.029745,-0.033341 0.089245,-0.033341l1.417081,0c0.059785,0 0.089529,0.016558 0.089529,0.049792l0.000011,1.854867l-0.000011,0z"
               id="path444175"
               stroke-width="0.197967"
               fill-rule="nonzero"
               fill="#415464" />
            <path
               stroke="null"
               d="m19.530257,8.129841c0.003164,-0.005527 0.006023,-0.012039 0.0077,-0.018657c0.001688,-0.00663 0.002321,-0.015016 0.002321,-0.024504c0,-0.015455 -0.023173,-0.030909 -0.06951,-0.046257c-0.046906,-0.015348 -0.10899,-0.029474 -0.18679,-0.041726c-0.077515,-0.012584 -0.166486,-0.023295 -0.266595,-0.031906c-0.100404,-0.008836 -0.205671,-0.013023 -0.316074,-0.013023c-0.103547,0 -0.212537,0.006618 -0.326675,0.020092c-0.113842,0.013687 -0.218254,0.035867 -0.313216,0.06667c-0.094972,0.030803 -0.172772,0.071651 -0.233127,0.122677c-0.060639,0.051002 -0.090679,0.113259 -0.090679,0.186334c0,0.073193 0.030029,0.135593 0.090679,0.1865c0.060354,0.05099 0.138155,0.091838 0.233127,0.12251c0.094972,0.030909 0.199374,0.053314 0.313216,0.06667c0.114137,0.013581 0.223117,0.020211 0.326675,0.020211c0.044617,0 0.115551,-0.004424 0.212527,-0.013035c0.096396,-0.008824 0.193372,-0.020531 0.289757,-0.036211c0.096691,-0.015336 0.182223,-0.032558 0.256585,-0.051879c0.074372,-0.019321 0.111279,-0.039414 0.111279,-0.060822c0,-0.009939 -0.003375,-0.017447 -0.01002,-0.022963c-0.007162,-0.005527 -0.014018,-0.012584 -0.021169,-0.020199l0.057211,-0.020424l0.533759,0.4537l-0.062358,0.020412c-0.007172,-0.009928 -0.016307,-0.016107 -0.028321,-0.018764c-0.012014,-0.002206 -0.026886,-0.004412 -0.044058,-0.004412c-0.024313,0 -0.072948,0.007721 -0.145021,0.024398c-0.072368,0.016451 -0.166771,0.033993 -0.282332,0.052105c-0.116131,0.018218 -0.251427,0.034776 -0.406753,0.049128c-0.155611,0.01434 -0.329807,0.021516 -0.523464,0.021516c-0.20681,0 -0.412765,-0.01479 -0.616432,-0.044703c-0.203951,-0.029806 -0.386734,-0.077048 -0.548937,-0.14182c-0.162467,-0.064464 -0.294061,-0.145331 -0.393874,-0.242649c-0.100119,-0.097152 -0.150464,-0.210269 -0.150464,-0.339481c0,-0.12907 0.050344,-0.242163 0.150464,-0.339481c0.099835,-0.097152 0.231407,-0.178043 0.393874,-0.242495c0.162203,-0.064796 0.344975,-0.113259 0.548937,-0.146125c0.203667,-0.032677 0.409612,-0.049128 0.616432,-0.049128c0.207379,0 0.386164,0.006618 0.536343,0.018989c0.150168,0.012252 0.277163,0.026485 0.380711,0.041726c0.100404,0.015336 0.177645,0.028371 0.233137,0.038963c0.055207,0.011042 0.096966,0.016012 0.124421,0.016012c0.031179,0 0.056926,-0.007733 0.077515,-0.023188l0.057211,0.008836l-0.466253,0.476509l-0.051758,-0.020104z"
               id="path444179"
               stroke-width="0.197967"
               fill-rule="nonzero"
               fill="#dca60f" />
            <path
               stroke="null"
               d="m23.858814,9.055863c0.015442,0.008836 0.056061,0.015123 0.121278,0.018657l0,0.034776l-1.066958,0l0,-0.034776c0.065797,-0.003309 0.106132,-0.009928 0.121858,-0.018657c0.015442,-0.008824 0.023163,-0.019642 0.023163,-0.033222l0,-0.534579l-1.346991,0l0,0.534579c0,0.013581 0.008016,0.024504 0.023458,0.033222c0.015442,0.008836 0.056061,0.015123 0.121858,0.018657l0,0.034776l-1.067538,0l0,-0.034776c0.065797,-0.003309 0.106132,-0.009928 0.121573,-0.018657c0.015727,-0.008824 0.023458,-0.019642 0.023458,-0.033222l0,-1.346441c0,-0.013569 -0.0077,-0.024718 -0.023458,-0.033222c-0.015442,-0.008836 -0.055766,-0.01479 -0.121573,-0.018764l0,-0.034551l1.067538,0l0,0.034551c-0.065786,0.004412 -0.106416,0.009928 -0.121858,0.018764c-0.015442,0.008836 -0.023458,0.019653 -0.023458,0.033222l0,0.459299l1.346991,0l0,-0.459299c0,-0.013569 -0.0077,-0.024718 -0.023163,-0.033222c-0.015727,-0.008836 -0.056051,-0.01479 -0.121858,-0.018764l0,-0.034551l1.066958,0l0,0.034551c-0.065217,0.004412 -0.105836,0.009928 -0.121278,0.018764c-0.015727,0.008836 -0.023458,0.019653 -0.023458,0.033222l0,1.346441c0,0.013581 0.00771,0.024504 0.023458,0.033222"
               id="path444183"
               stroke-width="0.197967"
               fill-rule="nonzero"
               fill="#dca60f" />
            <path
               stroke="null"
               d="m24.876883,9.074567c0.065512,-0.003309 0.106406,-0.009939 0.121858,-0.018657c0.015168,-0.008836 0.022878,-0.019653 0.022878,-0.033222l0,-1.346607c0,-0.013581 -0.0077,-0.024504 -0.022878,-0.033222c-0.015442,-0.008836 -0.056346,-0.014684 -0.121858,-0.018657l0,-0.034776l1.066958,0l0,0.034776c-0.065512,0.004412 -0.106121,0.009928 -0.121573,0.018657c-0.015727,0.008824 -0.023458,0.019642 -0.023458,0.033222l0,1.346607c0,0.013569 0.00771,0.024504 0.023458,0.033222c0.015442,0.008836 0.056061,0.015123 0.121573,0.018657l0,0.034776l-1.066958,0l0,-0.034776z"
               id="path444187"
               stroke-width="0.197967"
               fill-rule="nonzero"
               fill="#dca60f" />
            <path
               stroke="null"
               d="m29.316751,8.129841c0.003164,-0.005527 0.005801,-0.012039 0.0077,-0.018657c0.001688,-0.00663 0.00231,-0.015016 0.00231,-0.024504c0,-0.015455 -0.023163,-0.030909 -0.069499,-0.046257c-0.046906,-0.015348 -0.10899,-0.029474 -0.18679,-0.041726c-0.077515,-0.012584 -0.166771,-0.023295 -0.266595,-0.031906c-0.100678,-0.008836 -0.205671,-0.013023 -0.316074,-0.013023c-0.103547,0 -0.212537,0.006618 -0.326664,0.020092c-0.113852,0.013687 -0.218265,0.035867 -0.313226,0.06667c-0.094972,0.030803 -0.172772,0.071651 -0.233127,0.122677c-0.060639,0.051002 -0.090679,0.113259 -0.090679,0.186334c0,0.073193 0.030029,0.135593 0.090679,0.1865c0.060365,0.05099 0.138155,0.091838 0.233127,0.12251c0.094972,0.030909 0.199374,0.053314 0.313226,0.06667c0.114127,0.013581 0.223106,0.020211 0.326664,0.020211c0.044617,0 0.115551,-0.004424 0.212527,-0.013035c0.096396,-0.008824 0.193372,-0.020531 0.289757,-0.036211c0.096681,-0.015336 0.182213,-0.032558 0.256585,-0.051879c0.074372,-0.019321 0.111279,-0.039414 0.111279,-0.060822c0,-0.009939 -0.003375,-0.017447 -0.01002,-0.022963c-0.007172,-0.005527 -0.014029,-0.012584 -0.021169,-0.020199l0.057211,-0.020424l0.533759,0.4537l-0.062358,0.020412c-0.007172,-0.009928 -0.016307,-0.016107 -0.028321,-0.018764c-0.012299,-0.002206 -0.027171,-0.004412 -0.044047,-0.004412c-0.024313,0 -0.072948,0.007721 -0.145032,0.024398c-0.072663,0.016451 -0.16676,0.033993 -0.282321,0.052105c-0.116141,0.018218 -0.251437,0.034776 -0.406764,0.049128c-0.155611,0.01434 -0.329807,0.021516 -0.523454,0.021516c-0.207105,0 -0.41305,-0.01479 -0.616443,-0.044703c-0.203941,-0.029806 -0.387029,-0.077048 -0.549211,-0.14182c-0.162193,-0.064464 -0.293776,-0.145331 -0.3936,-0.242649c-0.100109,-0.097152 -0.150464,-0.210269 -0.150464,-0.339481c0,-0.12907 0.050355,-0.242163 0.150464,-0.339481c0.099845,-0.097152 0.231407,-0.178043 0.3936,-0.242495c0.162182,-0.064796 0.34526,-0.113259 0.549211,-0.146125c0.203392,-0.032677 0.409327,-0.049128 0.616443,-0.049128c0.207379,0 0.386153,0.006618 0.536332,0.018989c0.150168,0.012252 0.277174,0.026485 0.380721,0.041726c0.100404,0.015336 0.177635,0.028371 0.233127,0.038963c0.055218,0.011042 0.096691,0.016012 0.124432,0.016012c0.031179,0 0.056926,-0.007733 0.077515,-0.023188l0.057211,0.008836l-0.466253,0.476509l-0.051768,-0.020104z"
               id="path444191"
               stroke-width="0.197967"
               fill-rule="nonzero"
               fill="#dca60f" />
            <path
               stroke="null"
               d="m32.450848,8.548611l-0.502284,-0.687572l-0.461401,0.687572l0.963696,0l-0.000011,0zm-1.258885,0.497099c0,0.009939 0.006012,0.016997 0.018311,0.021753c0.012003,0.004412 0.036907,0.007721 0.074931,0.007721l0,0.034776l-0.916779,0l0,-0.034776c0.037761,-0.003309 0.065217,-0.009939 0.082663,-0.018657c0.017172,-0.008824 0.034322,-0.024504 0.051768,-0.047681c0.007172,-0.009939 0.024323,-0.035772 0.051768,-0.077831c0.027751,-0.042391 0.063793,-0.096037 0.108979,-0.160489c0.044923,-0.064582 0.094972,-0.1364 0.150179,-0.215369c0.054922,-0.078934 0.110699,-0.159362 0.165906,-0.241214c0.054922,-0.081792 0.109275,-0.161758 0.163047,-0.239767c0.053203,-0.078151 0.101258,-0.147727 0.142458,-0.209462c0.041759,-0.061605 0.074942,-0.111682 0.101258,-0.150277c0.025747,-0.038643 0.038615,-0.058735 0.038615,-0.060609c0,-0.009939 -0.01116,-0.016558 -0.033753,-0.020199c-0.022319,-0.004424 -0.045767,-0.00663 -0.069795,-0.008836l0,-0.034776l1.352149,0l0,0.034776c-0.027751,0.002206 -0.05006,0.004412 -0.067221,0.008836c-0.017446,0.003309 -0.026032,0.013569 -0.026032,0.028917c0,0.004412 0.016307,0.028929 0.049205,0.075174c0.032898,0.046257 0.075227,0.106202 0.127006,0.180593c0.051768,0.074189 0.111268,0.157939 0.178774,0.25126c0.067221,0.093618 0.1373,0.188896 0.209679,0.286202c0.072368,0.097152 0.142447,0.192074 0.209953,0.284446c0.067221,0.092514 0.128725,0.175481 0.183932,0.248544c0.027751,0.034776 0.050914,0.057739 0.069795,0.06922c0.01888,0.011813 0.044332,0.017435 0.074942,0.017435l0,0.034776l-1.020337,0l0,-0.034776c0.065217,-0.002206 0.0984,-0.013355 0.0984,-0.034444c0,-0.002206 -0.008544,-0.015004 -0.026032,-0.03907c-0.017161,-0.024066 -0.036326,-0.050895 -0.056916,-0.081033c-0.0206,-0.029688 -0.040335,-0.058059 -0.0595,-0.08522c-0.019165,-0.026936 -0.030314,-0.045154 -0.033753,-0.055082l-1.228002,0c-0.034038,0.052211 -0.061789,0.094495 -0.082958,0.127302c-0.0206,0.032677 -0.036896,0.058723 -0.04891,0.078044c-0.012014,0.019096 -0.0206,0.033222 -0.026317,0.041952c-0.004852,0.008824 -0.007489,0.01479 -0.007489,0.018657"
               id="path444195"
               stroke-width="0.197967"
               fill-rule="nonzero"
               fill="#dca60f" />
            <path
               stroke="null"
               d="m35.932451,8.55734c-0.028036,0 -0.046611,0.005515 -0.057211,0.016119c-0.01002,0.011031 -0.017161,0.024504 -0.0206,0.041726l-0.062358,0l0,-0.404573l0.062358,0c0.006856,0.034776 0.032614,0.052211 0.077811,0.052211l1.528349,0l0,0.034444c-0.055207,0.002206 -0.082958,0.01855 -0.082958,0.049341l0,0.479557c0,0.013687 0.003164,0.025169 0.010337,0.034551c0.006856,0.009939 0.024028,0.014458 0.051768,0.014458l0.026032,0l0,0.034551c-0.469692,0.138629 -1.026054,0.208193 -1.668223,0.208193c-0.217685,0 -0.427648,-0.015016 -0.629596,-0.044822c-0.201947,-0.029806 -0.380447,-0.076609 -0.536343,-0.140231c-0.155316,-0.063467 -0.280613,-0.143896 -0.375574,-0.241214c-0.094972,-0.097472 -0.142458,-0.211206 -0.142458,-0.342517c0,-0.130813 0.047486,-0.244879 0.142458,-0.342339c0.094972,-0.097366 0.220258,-0.177877 0.375574,-0.242803c0.155896,-0.06425 0.334396,-0.112642 0.536343,-0.144216c0.201947,-0.031906 0.411911,-0.047918 0.629596,-0.047918c0.086101,0 0.162467,0.000913 0.227694,0.002206c0.065797,0.002206 0.129579,0.005527 0.191938,0.011813c0.062358,0.005527 0.126141,0.012703 0.191653,0.021527c0.065786,0.008836 0.143017,0.019985 0.232842,0.033341c0.086671,0.013581 0.165906,0.029249 0.238559,0.047574c0.072368,0.01855 0.119285,0.027493 0.139874,0.027493c0.027466,0 0.051768,-0.007733 0.072653,-0.023188l0.062074,0.011481l-0.336674,0.381598l-0.062358,-0.020424c0.007172,-0.011481 0.010579,-0.022192 0.010579,-0.031574c0,-0.013355 -0.02947,-0.028596 -0.088105,-0.044822c-0.058635,-0.016451 -0.133007,-0.031455 -0.222832,-0.04481c-0.089825,-0.013581 -0.190788,-0.025062 -0.303206,-0.034669c-0.112133,-0.009939 -0.221978,-0.014352 -0.328953,-0.014352c-0.124147,0 -0.242862,0.008836 -0.354985,0.027161c-0.112133,0.018657 -0.212253,0.04691 -0.300358,0.085445c-0.087821,0.038631 -0.158185,0.086098 -0.209668,0.142947c-0.051768,0.05673 -0.077811,0.124752 -0.077811,0.20371c0,0.077273 0.031179,0.144062 0.093253,0.200863c0.062358,0.056956 0.140454,0.103545 0.235985,0.139898c0.094972,0.036863 0.200808,0.063799 0.318089,0.081021c0.11785,0.017447 0.233127,0.026058 0.347264,0.026058c0.145316,0 0.27575,-0.004424 0.391026,-0.014458c0.115846,-0.009939 0.22741,-0.022963 0.334385,-0.040303l0,-0.190793l-0.668221,0.000735z"
               id="path444199"
               stroke-width="0.197967"
               fill-rule="nonzero"
               fill="#dca60f" />
            <path
               stroke="null"
               d="m39.183291,7.95379c-0.101817,0.019321 -0.191653,0.046921 -0.269738,0.082468c-0.077231,0.03576 -0.139589,0.080369 -0.186221,0.133517c-0.046916,0.053101 -0.070079,0.113425 -0.070079,0.181079c0,0.067666 0.023163,0.128097 0.070079,0.181376c0.046621,0.053101 0.10899,0.097366 0.186221,0.133209c0.078096,0.035879 0.16792,0.063372 0.269738,0.082682c0.101543,0.01944 0.209689,0.028929 0.323806,0.028929c0.113568,0 0.221978,-0.009939 0.323806,-0.028929c0.101543,-0.019309 0.191653,-0.046696 0.269464,-0.082682c0.0778,-0.035879 0.139589,-0.080025 0.186221,-0.133209c0.046895,-0.053314 0.070364,-0.113745 0.070364,-0.181376c0,-0.067678 -0.023458,-0.127943 -0.070364,-0.181079c-0.046621,-0.053101 -0.10842,-0.097804 -0.186221,-0.133517c-0.077811,-0.035547 -0.16791,-0.063147 -0.269464,-0.082468c-0.101839,-0.019309 -0.210238,-0.029249 -0.323806,-0.029249c-0.114116,0 -0.222252,0.009939 -0.323806,0.029249m0.94798,-0.331012c0.195081,0.033661 0.365849,0.083227 0.513169,0.148842c0.14673,0.06546 0.262871,0.14628 0.349532,0.242637c0.086386,0.096369 0.129579,0.208027 0.129579,0.335009c0,0.127314 -0.043193,0.238984 -0.129579,0.335341c-0.08666,0.096369 -0.202802,0.177236 -0.349532,0.242637c-0.147331,0.065579 -0.318089,0.113591 -0.513169,0.144548c-0.195376,0.030803 -0.403336,0.046257 -0.624164,0.046257c-0.221113,0 -0.429357,-0.015455 -0.624153,-0.046257c-0.195376,-0.030909 -0.366429,-0.078922 -0.512885,-0.144548c-0.147025,-0.06546 -0.263736,-0.14628 -0.349837,-0.242637c-0.086671,-0.096369 -0.129864,-0.208027 -0.129864,-0.335341c0,-0.126982 0.043193,-0.238652 0.129864,-0.335009c0.086091,-0.096369 0.202802,-0.177236 0.349837,-0.242637c0.146456,-0.065579 0.317509,-0.115192 0.512885,-0.148842c0.194796,-0.033673 0.40304,-0.050788 0.624153,-0.050788c0.220828,0 0.428787,0.017115 0.624164,0.050788"
               id="path444203"
               stroke-width="0.197967"
               fill-rule="nonzero"
               fill="#dca60f" />
            <path
               stroke="null"
               id="path444205"
               d="m0.21666,8.484242l15.815296,0l0,-0.269608l-15.815286,0l0,0.269608l-0.000011,0z"
               stroke-width="0.197967"
               fill-rule="nonzero"
               fill="#dca60f" />
            <path
               stroke="null"
               id="path444207"
               d="m42.170416,8.484242l15.815001,0l0,-0.269608l-15.815001,0l0,0.269608z"
               stroke-width="0.197967"
               fill-rule="nonzero"
               fill="#dca60f" />
            <path
               stroke="null"
               d="m15.228512,1.105515l-0.890758,0.496779l-0.891032,-0.496779l0.891032,-0.496779l0.890758,0.496779z"
               id="path444211"
               stroke-width="0.197967"
               fill-rule="nonzero"
               fill="#dca60f" />
            <path
               stroke="null"
               d="m17.130969,1.105515l-0.874725,0.487848l-0.874736,-0.487848l0.874736,-0.487836l0.874725,0.487836z"
               id="path444215"
               stroke-width="0.197967"
               fill-rule="nonzero"
               fill="#dca60f" />
            <path
               stroke="null"
               d="m32.801571,4.05121l-0.874736,0.487848l-0.874441,-0.487848l0.874441,-0.487836l0.874736,0.487836z"
               id="path444219"
               stroke-width="0.197967"
               fill-rule="nonzero"
               fill="#dca60f" />
          </g>
        </g>
        <g
           stroke="null"
           id="layer16">
          <g
             stroke="null"
             transform="matrix(0.9423579940670658,0,0,1.1694773138193182,1.461393151594101,-34.12324870950695) "
             id="g455960">
            <g
               stroke="null"
               id="g455927">
              <path
                 stroke="null"
                 id="path444003"
                 d="m29.712711,26.130385c0.0068,0.00082 0.01031,0.004 0.01546,0.006c0.0052,-0.004 0.0014,-0.006 -0.01546,-0.006"
                 stroke-width="0.197967"
                 fill-rule="nonzero"
                 fill="#415464" />
            </g>
          </g>
        </g>
      </g>
    </g>
  </g>
</svg>
